{"accessors":[{"bufferView":0,"componentType":5123,"count":210,"max":[96],"min":[0],"type":"SCALAR"},{"bufferView":1,"componentType":5126,"count":97,"max":[0.5,0.5,0.8818449974060059],"min":[-0.5,-0.5000004768371582,-0.44134092330932617],"type":"VEC3"},{"bufferView":2,"componentType":5126,"count":97,"max":[1.0,1.0,1.0],"min":[-1.0,-1.0,-1.0],"type":"VEC3"},{"bufferView":3,"componentType":5126,"count":97,"max":[0.9927667379379272,0.9992243945598602],"min":[0.01863837242126465,0.010627210140228271],"type":"VEC2"},{"bufferView":4,"componentType":5126,"count":97,"max":[1.0,0.9997167587280273,0.48018679022789,1],"min":[-0.999984860420227,-0.9971159100532532,-1.0,1],"type":"VEC4"},{"bufferView":5,"componentType":5123,"count":30,"max":[19],"min":[0],"type":"SCALAR"},{"bufferView":6,"componentType":5126,"count":20,"max":[0.5,0.5,-0.25002479553222656],"min":[-0.5,-0.5,-0.5],"type":"VEC3"},{"bufferView":7,"componentType":5126,"count":20,"max":[0.7071067690849304,0.7071071267127991,-0.7071064114570618],"min":[-0.7071067690849304,-0.7071071863174438,-1.0],"type":"VEC3"},{"bufferView":8,"componentType":5126,"count":20,"max":[0.625,0.5624938011169434],"min":[0.375,0.18750619888305664],"type":"VEC2"},{"bufferView":9,"componentType":5123,"count":30,"max":[19],"min":[0],"type":"SCALAR"},{"bufferView":10,"componentType":5126,"count":20,"max":[0.5,0.5,-0.25002479553222656],"min":[-0.5,-0.5,-0.5],"type":"VEC3"},{"bufferView":11,"componentType":5126,"count":20,"max":[0.7071067690849304,0.7071071267127991,-0.7071064114570618],"min":[-0.7071067690849304,-0.7071071863174438,-1.0],"type":"VEC3"},{"bufferView":12,"componentType":5126,"count":20,"max":[0.625,0.5624938011169434],"min":[0.375,0.18750619888305664],"type":"VEC2"},{"bufferView":13,"componentType":5123,"count":30,"max":[19],"min":[0],"type":"SCALAR"},{"bufferView":14,"componentType":5126,"count":20,"max":[0.5,0.5,-0.25002479553222656],"min":[-0.5,-0.5,-0.5],"type":"VEC3"},{"bufferView":15,"componentType":5126,"count":20,"max":[0.7071067690849304,0.7071071267127991,-0.7071064114570618],"min":[-0.7071067690849304,-0.7071071863174438,-1.0],"type":"VEC3"},{"bufferView":16,"componentType":5126,"count":20,"max":[0.625,0.5624938011169434],"min":[0.375,0.18750619888305664],"type":"VEC2"}],"asset":{"copyright":null,"generator":"Soft8Soft Verge3D for Maya plug-in","version":"2.0"},"bufferViews":[{"buffer":0,"byteLength":420,"byteOffset":0,"target":34963},{"buffer":0,"byteLength":1164,"byteOffset":420,"target":34962},{"buffer":0,"byteLength":1164,"byteOffset":1584,"target":34962},{"buffer":0,"byteLength":776,"byteOffset":2748,"target":34962},{"buffer":0,"byteLength":1552,"byteOffset":3524,"target":34962},{"buffer":0,"byteLength":60,"byteOffset":5076,"target":34963},{"buffer":0,"byteLength":240,"byteOffset":5136,"target":34962},{"buffer":0,"byteLength":240,"byteOffset":5376,"target":34962},{"buffer":0,"byteLength":160,"byteOffset":5616,"target":34962},{"buffer":0,"byteLength":60,"byteOffset":5776,"target":34963},{"buffer":0,"byteLength":240,"byteOffset":5836,"target":34962},{"buffer":0,"byteLength":240,"byteOffset":6076,"target":34962},{"buffer":0,"byteLength":160,"byteOffset":6316,"target":34962},{"buffer":0,"byteLength":60,"byteOffset":6476,"target":34963},{"buffer":0,"byteLength":240,"byteOffset":6536,"target":34962},{"buffer":0,"byteLength":240,"byteOffset":6776,"target":34962},{"buffer":0,"byteLength":160,"byteOffset":7016,"target":34962}],"buffers":[{"byteLength":7176,"uri":"hard_disk_iron.bin"}],"cameras":[{"extensions":{"S8S_v3d_camera":{"controls":"ORBIT","enablePan":true,"moveSpeed":1.0,"orbitMaxDistance":1000.0,"orbitMaxPolarAngle":3.141592653589793,"orbitMaxZoom":100.0,"orbitMinDistance":0.0,"orbitMinPolarAngle":0.0,"orbitMinZoom":0.009999999776482582,"orbitTarget":[1.0658141036401503e-14,-3.197442310920451e-14,5.861977570020827e-13],"rotateSpeed":1.0,"viewportFitInitialAspect":1.5,"viewportFitType":"HORIZONTAL"}},"name":"perspShape","perspective":{"aspectRatio":1.5,"yfov":0.6605947096585075,"zfar":10000.0,"znear":0.1},"type":"perspective"}],"extensions":{"S8S_v3d_lights":{"lights":[{"color":[1,1,1],"intensity":2.5,"name":"__DEFAULT__","profile":"maya","type":"directional"}]}},"extensionsUsed":["S8S_v3d_texture","S8S_v3d_materials","S8S_v3d_lights","S8S_v3d_camera","S8S_v3d_mesh","S8S_v3d_node","S8S_v3d_scene"],"images":[{"mimeType":"image/jpeg","uri":"51U63KCLbRL._AC_.jpg"},{"mimeType":"image/jpeg","uri":"Group 14.jpg"}],"materials":[{"emissiveFactor":[0.0,0.0,0.0],"name":"aiStandardSurface2","normalTexture":{"index":1,"scale":5.0},"pbrMetallicRoughness":{"baseColorFactor":[1.0,1.0,1.0,1],"baseColorTexture":{"index":0},"metallicFactor":1.0,"roughnessFactor":1.0}},{"extensions":{"S8S_v3d_materials":{"gtaoVisible":true,"nodeGraph":{"edges":[{"fromNode":1,"fromOutput":0,"toInput":0,"toNode":0}],"nodes":[{"inputs":[[1.0,0.01899999938905239,0.0,1],[0,0,0,0],[0,0,0]],"is_active_output":true,"name":"pCube3SG","outputs":[],"type":"SHADING_ENGINE_MY"},{"inputs":[1.0,[1.0,0.01899999938905239,0.0],0.0,0.0,1.0,[1.0,1.0,1.0],0.20000000298023224,0.0,[1.0,1.0,1.0],0.0,[0.0,0.0,0.0],0.0,0.0,[1.0,1.0,1.0],[1.0,1.0,1.0],0.0,[1.0,1.0,1.0],0.10000000149011612,0.0,[1.0,1.0,1.0],0.30000001192092896,0.0,[1.0,1.0,1.0],[1.0,1.0,1.0],[1.0,1.0,1.0],[0.0,0.0,0.0],1.5],"name":"aiStandardSurface5","outputs":[[1.0,0.01899999938905239,0.0,0],[0.0,0.0,0.0]],"thinWalled":false,"type":"STANDARD_SURFACE_AR"}]},"profile":"maya"}},"name":"aiStandardSurface5"},{"extensions":{"S8S_v3d_materials":{"gtaoVisible":true,"nodeGraph":{"edges":[{"fromNode":1,"fromOutput":0,"toInput":0,"toNode":0}],"nodes":[{"inputs":[[1.0,0.9096999764442444,0.0,1],[0,0,0,0],[0,0,0]],"is_active_output":true,"name":"pCube4SG","outputs":[],"type":"SHADING_ENGINE_MY"},{"inputs":[1.0,[1.0,0.9096999764442444,0.0],0.0,0.0,1.0,[1.0,1.0,1.0],0.20000000298023224,0.0,[1.0,1.0,1.0],0.0,[0.0,0.0,0.0],0.0,0.0,[1.0,1.0,1.0],[1.0,1.0,1.0],0.0,[1.0,1.0,1.0],0.10000000149011612,0.0,[1.0,1.0,1.0],0.30000001192092896,0.0,[1.0,1.0,1.0],[1.0,1.0,1.0],[1.0,1.0,1.0],[0.0,0.0,0.0],1.5],"name":"aiStandardSurface4","outputs":[[1.0,0.9096999764442444,0.0,0],[0.0,0.0,0.0]],"thinWalled":false,"type":"STANDARD_SURFACE_AR"}]},"profile":"maya"}},"name":"aiStandardSurface4"},{"extensions":{"S8S_v3d_materials":{"gtaoVisible":true,"nodeGraph":{"edges":[{"fromNode":1,"fromOutput":0,"toInput":0,"toNode":0}],"nodes":[{"inputs":[[1.0,1.0,1.0,1],[0,0,0,0],[0,0,0]],"is_active_output":true,"name":"pCube5SG","outputs":[],"type":"SHADING_ENGINE_MY"},{"inputs":[1.0,[1.0,1.0,1.0],0.0,0.0,1.0,[1.0,1.0,1.0],0.0,0.0,[1.0,1.0,1.0],0.0,[0.0,0.0,0.0],0.0,0.0,[1.0,1.0,1.0],[1.0,1.0,1.0],0.0,[1.0,1.0,1.0],0.10000000149011612,0.0,[1.0,1.0,1.0],0.30000001192092896,0.0,[1.0,1.0,1.0],[1.0,1.0,1.0],[1.0,1.0,1.0],[0.0,0.0,0.0],1.5],"name":"aiStandardSurface3","outputs":[[1.0,1.0,1.0,0],[0.0,0.0,0.0]],"thinWalled":false,"type":"STANDARD_SURFACE_AR"}]},"profile":"maya"}},"name":"aiStandardSurface3"},{"extensions":{"S8S_v3d_materials":{"nodeGraph":{"edges":[{"fromNode":0,"fromOutput":0,"toInput":0,"toNode":1}],"nodes":[{"inputs":[[0.10653923276464054,0.10653923276464054,0.10653923276464054],[0,0,0],[0,0,0],[0,0,0],[0,0,0],[0,0,0]],"name":"aiRaySwitchColor","outputs":[[0,0,0],0],"type":"RAY_SWITCH_AR"},{"inputs":[[0,0,0],1],"is_active_output":true,"name":"aiSkyDomeLightShapeColor","outputs":[],"type":"SKYDOME_LIGHT_AR"}]},"profile":"maya"}},"name":"Verge3D_Environment"}],"meshes":[{"extensions":{"S8S_v3d_mesh":{}},"name":"pCube2Shape","primitives":[{"attributes":{"NORMAL":2,"POSITION":1,"TANGENT":4,"TEXCOORD_0":3},"indices":0,"material":0,"mode":4}]},{"extensions":{"S8S_v3d_mesh":{}},"name":"pCube3Shape","primitives":[{"attributes":{"NORMAL":7,"POSITION":6,"TEXCOORD_0":8},"indices":5,"material":1,"mode":4}]},{"extensions":{"S8S_v3d_mesh":{}},"name":"pCube4Shape","primitives":[{"attributes":{"NORMAL":11,"POSITION":10,"TEXCOORD_0":12},"indices":9,"material":2,"mode":4}]},{"extensions":{"S8S_v3d_mesh":{}},"name":"pCube5Shape","primitives":[{"attributes":{"NORMAL":15,"POSITION":14,"TEXCOORD_0":16},"indices":13,"material":3,"mode":4}]}],"nodes":[{"extensions":{"S8S_v3d_node":{"frustumCulling":true,"hidden":false,"hidpiCompositing":false,"renderOrder":0,"useCastShadows":true,"useShadows":true}},"mesh":0,"name":"pCube2","rotation":[0.0,0.0,0.0,1.0],"scale":[20.13191628546129,5.844131929602715,14.65793172428419],"translation":[-0.12516501545906067,0.0,-0.3440217673778534]},{"extensions":{"S8S_v3d_node":{"frustumCulling":true,"hidden":false,"hidpiCompositing":false,"renderOrder":0,"useCastShadows":true,"useShadows":true}},"mesh":1,"name":"pCube3","rotation":[0.0,0.0,0.0,1.0],"scale":[1.0,1.0,1.0],"translation":[5.420345783233643,0.0,-6.534927845001221]},{"extensions":{"S8S_v3d_node":{"frustumCulling":true,"hidden":false,"hidpiCompositing":false,"renderOrder":0,"useCastShadows":true,"useShadows":true}},"mesh":2,"name":"pCube4","rotation":[0.0,0.0,0.0,1.0],"scale":[1.0,1.0,1.0],"translation":[2.3820431232452393,0.0,-6.534927845001221]},{"extensions":{"S8S_v3d_node":{"frustumCulling":true,"hidden":false,"hidpiCompositing":false,"renderOrder":0,"useCastShadows":true,"useShadows":true}},"mesh":3,"name":"pCube5","rotation":[0.0,0.0,0.0,1.0],"scale":[1.0,1.0,1.0],"translation":[-5.428460121154785,0.0,-6.534927845001221]},{"camera":0,"children":[5],"extensions":{"S8S_v3d_node":{"hidden":true,"hidpiCompositing":false}},"name":"persp","rotation":[-0.2790618451532809,0.42395036430840405,0.1391351035028854,0.850312882505998],"scale":[1.0,1.0,1.0],"translation":[27.529379631589258,25.35665474310126,20.74487551820081]},{"extensions":{"S8S_v3d_lights":{"light":0}},"name":"__DEFAULT_LIGHT__","rotation":[-0.13052619222005157,-0.0,-0.0,0.9914448613738104],"translation":[27.529379631589258,25.35665474310126,20.74487551820081]}],"samplers":[{}],"scene":0,"scenes":[{"extensions":{"S8S_v3d_scene":{"aaMethod":"AUTO","iblEnvironmentMode":"PMREM","physicallyCorrectLights":true,"shadowMap":{"esmDistanceScale":2.5,"renderReverseSided":false,"renderSingleSided":true,"type":"PCFPOISSON"},"unitsScaleFactor":1.0,"useHDR":false,"worldMaterial":4}},"extras":{"animFrameRate":24.0,"coordSystem":"Y_UP_RIGHT"},"name":"Scene","nodes":[0,1,2,3,4]}],"textures":[{"extensions":{"S8S_v3d_texture":{"colorSpace":"srgb"}},"name":"file1","sampler":0,"source":0},{"extensions":{"S8S_v3d_texture":{"colorSpace":"srgb"}},"name":"file5","sampler":0,"source":1}]}