<?xml version="1.0" encoding="utf-8"?>
<svg version="1.1" xmlns="http://www.w3.org/2000/svg" xmlns:xlink="http://www.w3.org/1999/xlink" x="0px" y="0px"
	 viewBox="0 0 538 540" style="enable-background:new 0 0 538 540;" xml:space="preserve">
<style type="text/css">
	.st0{fill:#D6DE23;}
	.st1{fill:#D0E299;}
	.st2{fill:#C6E9FA;}
	.st3{fill:#FFF100;}
	.st4{fill:#CE8A2D;}
	.st5{fill:#CCDDE6;}
</style>
<g id="澎湖">
	<path class="st0" d="M126.25,288.2c0.4,0.1,0.61,0.3,0.61,0.1c0-0.2-0.2-0.81-0.3-1.21c-0.1-0.4-0.1-0.61-0.3-0.71
		c-0.2-0.1-0.61-0.1-1.11,0.2c-0.51,0.3-1.11,0.91-1.62,1.11c-0.51,0.2-0.91,0-1.11,0.4c-0.2,0.4-0.2,1.41,0.2,1.52
		c0.4,0.1,1.21-0.71,1.92-1.11C125.24,288.1,125.85,288.1,126.25,288.2z"/>
	<path class="st0" d="M123.52,284.66c-0.1,0-0.1,0.2-0.2,0.2c-0.1,0-0.3-0.2-0.51-0.2c-0.2,0-0.4,0.2-0.51,0.4
		c-0.1,0.2-0.1,0.4,0,0.51c0.1,0.1,0.3,0.1,0.51,0.2c0.2,0.1,0.4,0.3,0.61,0.4c0.2,0.1,0.4,0.1,0.51,0c0.1-0.1,0.1-0.3,0-0.4
		c-0.1-0.1-0.3-0.1-0.3-0.2c0-0.1,0.2-0.3,0.2-0.51C123.82,284.87,123.62,284.66,123.52,284.66z"/>
	<path class="st0" d="M126.55,304.58c-0.3-0.1-0.51-0.1-0.61-0.2c-0.1-0.1-0.1-0.3-0.2-0.4c-0.1-0.1-0.3-0.1-0.4,0.1
		c-0.1,0.2-0.1,0.61-0.2,0.71c-0.1,0.1-0.3-0.1-0.4,0c-0.1,0.1-0.1,0.51-0.1,0.81c0,0.3,0,0.5,0.1,0.71c0.1,0.2,0.3,0.4,0.4,0.4
		c0.1,0,0.1-0.2,0.1-0.4c0-0.2,0-0.4,0.1-0.5c0.1-0.1,0.3-0.1,0.4-0.2c0.1-0.1,0.1-0.3,0.2-0.4c0.1-0.1,0.3-0.1,0.51,0
		c0.2,0.1,0.4,0.3,0.61,0.4c0.2,0.1,0.4,0.1,0.51,0c0.1-0.1,0.1-0.3-0.1-0.51C127.26,304.88,126.86,304.68,126.55,304.58z"/>
	<path class="st0" d="M122.91,302.76c-0.1-0.3-0.1-0.51-0.1-0.71c0-0.2,0-0.4-0.2-0.4c-0.2,0-0.61,0.2-0.81,0.2
		c-0.2,0-0.2-0.2-0.4-0.3c-0.2-0.1-0.61-0.1-0.71,0.1c-0.1,0.2,0.1,0.61,0.2,1.31c0.1,0.71,0.1,1.72,0,2.22
		c-0.1,0.5-0.3,0.5-0.61,0.81c-0.3,0.3-0.71,0.91-0.71,1.21c0,0.3,0.4,0.3,0.71,0.2c0.3-0.1,0.51-0.3,0.81-0.51
		c0.3-0.2,0.71-0.4,0.91-0.4c0.2,0,0.2,0.2,0.3,0.4c0.1,0.2,0.3,0.4,0.51,0.4c0.2,0,0.4-0.2,0.4-0.4c0-0.2-0.2-0.4-0.3-0.71
		c-0.1-0.3-0.1-0.71,0-0.91c0.1-0.2,0.3-0.2,0.4-0.4c0.1-0.2,0.1-0.61,0-1.01C123.22,303.47,123.02,303.06,122.91,302.76z"/>
	<path class="st0" d="M132.72,253.73c0.4-0.2,1.01-0.81,1.42-1.11c0.4-0.3,0.61-0.3,0.81-0.51c0.2-0.2,0.4-0.61,0.4-0.91
		c0-0.3-0.2-0.51-0.51-0.81c-0.3-0.3-0.71-0.71-1.01-0.61c-0.3,0.1-0.51,0.71-0.91,1.11c-0.4,0.4-1.01,0.61-1.21,1.01
		c-0.2,0.4,0,1.01,0.2,1.42S132.32,253.93,132.72,253.73z"/>
	<path class="st0" d="M145.86,277.08c-0.2-0.1-0.4-0.3-0.81-0.4c-0.4-0.1-1.01-0.1-1.31-0.4c-0.3-0.3-0.3-0.91-0.3-1.42
		c0-0.5,0-0.91,0.1-1.21c0.1-0.3,0.3-0.51,0.2-0.81c-0.1-0.3-0.51-0.71-0.91-1.11c-0.4-0.4-0.81-0.81-1.01-0.81
		c-0.2,0-0.2,0.4-0.4,0.61c-0.2,0.2-0.61,0.2-0.81,0c-0.2-0.2-0.2-0.61-0.3-0.81c-0.1-0.2-0.3-0.2-0.4,0c-0.1,0.2-0.1,0.61-0.3,0.91
		c-0.2,0.3-0.61,0.51-0.81,0.91s-0.2,1.01-0.3,1.11c-0.1,0.1-0.3-0.3-0.51-0.4c-0.2-0.1-0.4,0.1-0.61,0.51
		c-0.2,0.4-0.4,1.01-0.61,1.21c-0.2,0.2-0.4,0-0.4-0.2c0-0.2,0.2-0.4,0.3-0.71c0.1-0.3,0.1-0.71,0.1-1.11c0-0.4,0-0.81,0.1-1.01
		c0.1-0.2,0.3-0.2,0.4-0.3c0.1-0.1,0.1-0.3,0-0.51c-0.1-0.2-0.3-0.4-0.51-0.51c-0.2-0.1-0.4-0.1-0.51,0c-0.1,0.1-0.1,0.3-0.1,0.51
		c0,0.2,0,0.4-0.1,0.51c-0.1,0.1-0.3,0.1-0.61,0c-0.3-0.1-0.71-0.3-0.91-0.3c-0.2,0-0.2,0.2-0.3,0.3c-0.1,0.1-0.3,0.1-0.4,0.2
		c-0.1,0.1-0.1,0.3,0,0.51c0.1,0.2,0.3,0.4,0.3,0.71c0,0.3-0.2,0.71-0.4,1.21c-0.2,0.51-0.4,1.11-0.61,1.41
		c-0.2,0.3-0.4,0.3-0.51,0.2c-0.1-0.1-0.1-0.3-0.2-0.4c-0.1-0.1-0.3-0.1-0.4-0.3c-0.1-0.2-0.1-0.61-0.1-1.01c0-0.4,0-0.81-0.1-1.01
		c-0.1-0.2-0.3-0.2-0.61,0.1c-0.3,0.3-0.71,0.91-1.21,1.21c-0.51,0.3-1.11,0.3-1.31,0.4c-0.2,0.1,0,0.3,0,0.61
		c0,0.3-0.2,0.71-0.4,1.11s-0.4,0.81-0.3,1.01c0.1,0.2,0.51,0.2,0.91-0.1c0.4-0.3,0.81-0.91,1.11-1.01c0.3-0.1,0.51,0.3,0.81,0.61
		c0.3,0.3,0.71,0.5,0.81,0.61c0.1,0.1-0.1,0.1-0.2,0.3c-0.1,0.2-0.1,0.61,0,0.81c0.1,0.2,0.3,0.2,0.71,0.2c0.4,0,1.01,0,1.42,0.1
		c0.4,0.1,0.61,0.3,0.51,0.51c-0.1,0.2-0.51,0.4-0.71,0.71c-0.2,0.3-0.2,0.71-0.3,1.01c-0.1,0.3-0.3,0.5-0.71,0.61
		c-0.4,0.1-1.01,0.1-1.62,0c-0.61-0.1-1.21-0.3-1.62-0.3s-0.61,0.2-0.81,0.2s-0.4-0.2-0.51-0.4c-0.1-0.2-0.1-0.4-0.2-0.61
		c-0.1-0.2-0.3-0.4-0.3-0.61c0-0.2,0.2-0.4,0.4-0.51c0.2-0.1,0.4-0.1,0.51-0.2c0.1-0.1,0.1-0.3-0.1-0.4c-0.2-0.1-0.61-0.1-1.01-0.2
		c-0.4-0.1-0.81-0.3-1.01-0.3c-0.2,0-0.2,0.2-0.1,0.4c0.1,0.2,0.3,0.4,0.4,0.61c0.1,0.2,0.1,0.4,0,0.81c-0.1,0.4-0.3,1.01-0.2,1.31
		c0.1,0.3,0.51,0.3,0.81,0.4c0.3,0.1,0.51,0.3,0.71,0.51c0.2,0.2,0.4,0.4,0.61,0.4s0.4-0.2,0.61-0.3c0.2-0.1,0.4-0.1,0.61,0
		c0.2,0.1,0.4,0.3,0.61,0.61c0.2,0.3,0.4,0.71,0.4,1.11s-0.2,0.81-0.2,1.01c0,0.2,0.2,0.2,0.4,0.1c0.2-0.1,0.4-0.3,0.91-0.4
		c0.51-0.1,1.31-0.1,1.92-0.2c0.61-0.1,1.01-0.3,1.31-0.51c0.3-0.2,0.51-0.4,0.61-0.71c0.1-0.3,0.1-0.71,0-1.01s-0.3-0.5-0.4-0.71
		c-0.1-0.2-0.1-0.41,0.1-0.61c0.2-0.2,0.61-0.4,1.11-0.71c0.51-0.3,1.11-0.71,1.52-1.31c0.4-0.61,0.61-1.41,0.91-1.92
		c0.3-0.51,0.71-0.71,0.91-0.71c0.2,0,0.2,0.2,0.51,0.3c0.3,0.1,0.91,0.1,1.42,0.1c0.51,0,0.91,0,1.21,0.1
		c0.3,0.1,0.51,0.3,0.61,0.61c0.1,0.3,0.1,0.71,0.2,0.91c0.1,0.2,0.3,0.2,0.81-0.1c0.51-0.3,1.31-0.91,1.62-1.21
		C146.27,277.18,146.07,277.18,145.86,277.08z"/>
	<path class="st0" d="M120.39,277.28c0.4,0.1,0.81,0.3,1.11,0.51c0.3,0.2,0.51,0.4,0.71,0.4c0.2,0,0.4-0.2,0.51-0.51
		c0.1-0.3,0.1-0.71,0-0.91c-0.1-0.2-0.3-0.2-0.4-0.3c-0.1-0.1-0.1-0.3,0-0.61c0.1-0.3,0.3-0.71,0.4-1.21c0.1-0.51,0.1-1.11,0.2-1.42
		c0.1-0.3,0.3-0.3,0.4-0.4c0.1-0.1,0.1-0.3,0.2-0.81c0.1-0.51,0.3-1.31,0.2-1.92c-0.1-0.61-0.51-1.01-0.61-1.31
		c-0.1-0.3,0.1-0.51,0.3-0.61c0.2-0.1,0.4-0.1,0.61-0.1c0.2,0,0.4,0,0.61-0.1c0.2-0.1,0.4-0.3,0.51-0.51c0.1-0.2,0.1-0.4-0.1-0.51
		c-0.2-0.1-0.61-0.1-1.01-0.1c-0.4,0-0.81,0-1.21-0.1c-0.4-0.1-0.81-0.3-1.11-0.3c-0.3,0-0.51,0.2-0.71,0.5
		c-0.2,0.3-0.4,0.71-0.61,1.21c-0.2,0.51-0.4,1.11-0.3,1.52c0.1,0.4,0.51,0.61,0.71,0.91c0.2,0.3,0.2,0.71,0.1,1.11
		c-0.1,0.4-0.3,0.81-0.51,0.91c-0.2,0.1-0.4-0.1-0.61-0.3c-0.2-0.2-0.4-0.4-0.51-0.4c-0.1,0-0.1,0.2,0,0.51
		c0.1,0.3,0.3,0.71,0.61,1.01c0.3,0.3,0.71,0.51,0.91,0.71c0.2,0.2,0.2,0.4,0.1,0.51c-0.1,0.1-0.3,0.1-0.4,0.4
		c-0.1,0.3-0.1,0.91-0.2,1.21c-0.1,0.3-0.3,0.3-0.51,0.2c-0.2-0.1-0.4-0.3-0.61-0.4c-0.2-0.1-0.4-0.1-0.61,0.1
		c-0.2,0.2-0.4,0.61-0.71,0.91c-0.3,0.3-0.71,0.5-0.91,0.5c-0.2,0-0.2-0.2-0.3-0.2s-0.3,0.2-0.4,0.41c-0.1,0.2-0.1,0.4,0,0.61
		c0.1,0.2,0.3,0.4,0.51,0.4s0.4-0.2,0.61-0.4c0.2-0.2,0.4-0.4,0.71-0.61c0.3-0.2,0.71-0.41,1.11-0.51
		C119.58,277.18,119.98,277.18,120.39,277.28z"/>
	<path class="st0" d="M127.56,265.35c0.3,0.1,0.51-0.1,0.51-0.3c0-0.2-0.2-0.4-0.1-0.51c0.1-0.1,0.51-0.1,0.81-0.2
		c0.3-0.1,0.51-0.3,0.81-0.51c0.3-0.2,0.71-0.4,0.91-0.1c0.2,0.3,0.2,1.11,0.4,1.62c0.2,0.51,0.61,0.71,0.81,1.01
		c0.2,0.3,0.2,0.71,0.1,1.01c-0.1,0.3-0.3,0.51-0.2,0.71c0.1,0.2,0.51,0.4,0.71,0.61c0.2,0.2,0.2,0.4,0.4,0.3
		c0.2-0.1,0.61-0.51,1.01-0.81c0.4-0.3,0.81-0.51,0.71-0.61c-0.1-0.1-0.71-0.1-1.01-0.51c-0.3-0.4-0.3-1.21-0.2-1.62
		c0.1-0.4,0.3-0.4,0.51-0.51c0.2-0.1,0.4-0.3,0.3-0.61c-0.1-0.3-0.51-0.71-0.61-1.01c-0.1-0.3,0.1-0.51,0.2-0.81
		c0.1-0.3,0.1-0.71-0.2-0.91c-0.3-0.2-0.91-0.2-1.42-0.2c-0.51,0-0.91,0-1.31,0.1c-0.4,0.1-0.81,0.3-1.21,0.51
		c-0.4,0.2-0.81,0.4-1.21,0.51c-0.4,0.1-0.81,0.1-1.11,0.1c-0.3,0-0.51,0-0.61,0.1c-0.1,0.1-0.1,0.3-0.1,0.61c0,0.3,0,0.71,0.2,1.11
		C126.86,264.85,127.26,265.25,127.56,265.35z"/>
	<path class="st0" d="M116.14,326.32c-0.4,0-0.81,0-1.21-0.2c-0.4-0.2-0.81-0.61-1.21-0.61s-0.81,0.4-1.21,0.61
		c-0.4,0.2-0.81,0.2-1.01,0.4c-0.2,0.2-0.2,0.61,0,0.81c0.2,0.2,0.61,0.2,1.01,0.2s0.81,0,1.01,0.2c0.2,0.2,0.2,0.61,0,1.01
		c-0.2,0.4-0.61,0.81-0.61,1.21s0.4,0.81,0.61,0.81c0.2,0,0.2-0.4,0.4-0.61c0.2-0.2,0.61-0.2,0.81-0.4c0.2-0.2,0.2-0.61,0.4-0.81
		c0.2-0.2,0.61-0.2,0.81-0.4c0.2-0.2,0.2-0.61,0.4-1.01c0.2-0.4,0.61-0.81,0.61-1.01C116.95,326.32,116.54,326.32,116.14,326.32z"/>
</g>
<g id="宜花東">
	<path class="st1" d="M380.31,387.28c-0.1-0.3-0.5-0.91-0.81-1.31c-0.3-0.4-0.5-0.61-0.3-1.01s0.81-1.01,1.11-1.52
		c0.3-0.51,0.3-0.91,0.51-1.11c0.2-0.2,0.61-0.2,0.61-0.5c0-0.3-0.4-0.91-0.61-1.31s-0.2-0.61-0.4-0.71c-0.2-0.1-0.61-0.1-1.01,0
		c-0.4,0.1-0.81,0.3-1.21,0.3s-0.81-0.2-1.21-0.1c-0.4,0.1-0.81,0.51-1.32,0.51c-0.51,0.01-1.13-0.38-1.54-0.58
		c-0.4-0.2-0.59-0.22-0.69-0.03c-0.09,0.19-0.09,0.6,0.11,1c0.2,0.4,0.61,0.81,1.01,1.01c0.41,0.2,0.81,0.2,0.81,0.71
		c0,0.5-0.4,1.52-0.51,2.12c-0.1,0.61,0.1,0.81,0.61,0.71c0.51-0.1,1.31-0.51,1.62-0.51c0.3,0,0.1,0.4,0.2,0.81
		c0.1,0.4,0.51,0.81,1.01,1.11c0.5,0.3,1.11,0.5,1.52,0.61C380.21,387.58,380.41,387.58,380.31,387.28z"/>
	<path class="st1" d="M391.53,463.3c-0.4-0.1-0.81-0.3-1.11-0.61c-0.3-0.3-0.51-0.71-0.71-0.81c-0.2-0.1-0.4,0.1-0.81,0
		c-0.4-0.1-1.01-0.51-1.21-0.81c-0.2-0.3,0-0.5,0-0.71c0-0.2-0.2-0.4-0.3-0.61c-0.1-0.2-0.1-0.4,0.1-0.61c0.2-0.2,0.61-0.4,0.91-0.4
		c0.3,0,0.51,0.2,0.61,0.2c0.1,0,0.1-0.2,0.1-0.4c0-0.2,0-0.4-0.1-0.5c-0.1-0.1-0.3-0.1-0.51-0.3c-0.2-0.2-0.4-0.61-0.4-0.91
		c0-0.3,0.2-0.5,0.3-0.71c0.1-0.2,0.1-0.41,0.1-0.61c0-0.2,0-0.4-0.1-0.5c-0.1-0.1-0.3-0.1-0.5,0c-0.2,0.1-0.4,0.3-0.71,0.4
		c-0.3,0.1-0.71,0.1-1.11,0c-0.4-0.1-0.81-0.3-1.31-0.4c-0.51-0.1-1.11-0.1-1.72,0c-0.61,0.1-1.21,0.3-1.62,0.3s-0.61-0.2-0.71-0.4
		c-0.1-0.2-0.1-0.4-0.2-0.5c-0.1-0.1-0.3-0.1-0.51,0c-0.2,0.1-0.4,0.3-0.51,0.5c-0.1,0.2-0.1,0.4,0,0.51c0.1,0.1,0.3,0.1,0.4,0.2
		c0.1,0.1,0.1,0.3,0.2,0.51c0.1,0.2,0.3,0.4,0.4,0.91c0.1,0.5,0.1,1.31,0,1.92c-0.1,0.61-0.3,1.01-0.3,1.21c0,0.2,0.2,0.2,0.5,0.2
		c0.3,0,0.71,0,1.01,0.1c0.3,0.1,0.5,0.3,0.71,0.71c0.2,0.4,0.4,1.01,0.71,1.41c0.3,0.4,0.71,0.61,1.41,0.61
		c0.71,0,1.72-0.2,2.22-0.2c0.5,0,0.5,0.2,0.5,0.51c0,0.3,0,0.71,0.3,1.01c0.3,0.3,0.91,0.51,1.11,0.81c0.2,0.3,0,0.71,0,1.01
		c0,0.3,0.2,0.51,0.51,0.61c0.3,0.1,0.71,0.1,1.01,0.2c0.3,0.1,0.5,0.3,0.71,0.3c0.2,0,0.4-0.2,0.61-0.61
		c0.2-0.4,0.41-1.01,0.41-1.41s-0.2-0.61-0.2-0.81c0-0.2,0.2-0.4,0.4-0.61c0.2-0.2,0.4-0.4,0.3-0.5
		C392.34,463.4,391.94,463.4,391.53,463.3z"/>
	<path class="st1" d="M417.51,94.8c-1.31,0.2-2.12,0.61-3.74,1.42c-1.62,0.81-4.04,2.02-5.46,3.03c-1.42,1.01-1.82,1.82-2.22,2.63
		c-0.4,0.81-0.81,1.62-1.62,2.22c-0.81,0.61-2.02,1.01-2.83,0.81s-1.21-1.01-1.62-0.81c-0.4,0.2-0.81,1.42-1.41,2.43
		c-0.61,1.01-1.42,1.82-4.85,4.04c-3.44,2.22-9.5,5.86-12.74,7.89c-3.23,2.02-3.64,2.43-3.64,3.64c0,1.21,0.41,3.23,0.2,4.45
		c-0.2,1.21-1.01,1.62-2.22,2.22c-1.21,0.61-2.83,1.42-4.85,2.22c-2.02,0.81-4.45,1.62-5.86,2.22c-0.96,0.41-1.45,0.73-1.92,0.64
		c-1.1,1.85-2.38,3.62-3.24,5.02c-1.11,1.82-1.52,3.03-1.72,4.55c-0.15,1.12-0.19,2.41-0.69,3.5c0.49,0.75,0.46,1.52,0.09,2.46
		c-0.4,1.01-1.21,2.22-2.22,3.44c-1.01,1.21-2.22,2.43-3.64,4.25c-1.42,1.82-3.03,4.25-4.25,5.66c-0.36,0.42-0.68,0.75-0.98,1.02
		c0.99,1.83,1.93,3.26,2.6,4.34c0.81,1.31,1.21,2.12,1.82,2.53s1.42,0.4,2.43,0.4c1.01,0,2.22,0,3.23-0.2
		c1.01-0.2,1.82-0.61,2.83-0.61c1.01,0,2.22,0.4,3.44,1.01c0.08,0.04,0.15,0.08,0.23,0.12c-3.43,4.28-5.38,6.67-6.9,8.27
		c-1.82,1.92-3.03,2.73-3.64,3.34c-0.61,0.61-0.61,1.01-0.61,2.02c0,1.01,0,2.63,0.2,4.04c0.2,1.41,0.61,2.63,1.42,4.25
		c0.81,1.62,2.02,3.64,2.43,4.65c0.4,1.01,0,1.01-0.81,1.01s-2.02,0-2.83,0.4c-0.81,0.4-1.21,1.21-1.42,2.02
		c-0.2,0.81-0.2,1.62,0,2.43c0.2,0.81,0.61,1.62,0.4,2.43c-0.2,0.81-1.01,1.62-2.43,3.44c-1.41,1.82-3.44,4.65-4.45,6.47
		c-1.01,1.82-1.01,2.63-0.81,3.23c0.2,0.61,0.61,1.01,1.01,1.42s0.81,0.81,1.21,1.42c0.4,0.61,0.81,1.42,0.81,2.83
		c0,1.42-0.4,3.44-0.81,5.05c-0.4,1.62-0.81,2.83-1.21,3.84c-0.4,1.01-0.81,1.82-1.21,2.63c-0.4,0.81-0.81,1.62-1.62,2.83
		c-0.81,1.21-2.02,2.83-2.63,3.84c-0.61,1.01-0.61,1.42-0.2,1.82c0.4,0.4,1.21,0.81,2.02,1.42c0.81,0.61,1.62,1.42,2.22,2.02
		c0.61,0.61,1.01,1.01,1.01,1.62c0,0.61-0.4,1.41-1.01,4.25c-0.61,2.83-1.41,7.68-2.02,10.11c-0.61,2.43-1.01,2.43-2.02,2.83
		c-1.01,0.4-2.63,1.21-3.44,2.02c-0.81,0.81-0.81,1.62-0.81,2.63c0,1.01,0,2.22-0.2,2.83c-0.2,0.61-0.61,0.61-1.82,0.81
		c-1.21,0.2-3.23,0.61-4.45,0.81c-1.21,0.2-1.62,0.2-2.02,0.81c-0.4,0.61-0.81,1.82-1.62,3.24c-0.81,1.41-2.02,3.03-2.83,4.04
		c-0.81,1.01-1.21,1.42-1.21,1.82s0.4,0.81,0.81,1.21c0.4,0.4,0.81,0.81,1.01,1.21c0.2,0.4,0.2,0.81-0.2,1.01
		c-0.4,0.2-1.21,0.2-2.02,0.4c-0.81,0.2-1.62,0.61-2.43,0.81c-0.81,0.2-1.62,0.2-2.02,0.4c-0.4,0.2-0.4,0.61-0.4,1.21
		c0,0.61,0,1.42,0.2,2.02c0.2,0.61,0.61,1.01,1.62,1.21c1.01,0.2,2.63,0.2,3.84,0.4c1.21,0.2,2.02,0.61,2.22,1.21
		c0.2,0.61-0.2,1.42-0.4,2.43c-0.19,0.97-0.2,2.12,0.15,3.1c-1.18,0.4-2.04,0.54-2.98,0.94c-1.41,0.61-3.03,1.82-4.25,2.63
		c-1.21,0.81-2.02,1.21-2.83,2.02s-1.62,2.02-2.43,3.03c-0.81,1.01-1.62,1.82-2.22,2.63c-0.61,0.81-1.01,1.62-1.42,2.63
		c-0.4,1.01-0.81,2.22-1.01,3.23c-0.2,1.01-0.2,1.82-0.4,4.45c-0.2,2.63-0.61,7.08-0.81,10.11c-0.2,3.03-0.2,4.65-0.4,5.66
		c-0.2,1.01-0.61,1.41-1.01,1.82c-0.4,0.4-0.81,0.81-1.21,1.21c-0.41,0.4-0.81,0.81-1.21,1.41c-0.4,0.61-0.81,1.42-1.01,2.22
		c-0.2,0.81-0.2,1.62,0,2.43c0.2,0.81,0.61,1.62,1.01,2.22c0.4,0.61,0.81,1.01,1.21,2.43c0.4,1.41,0.81,3.84,1.21,5.26
		c0.4,1.42,0.81,1.82,2.02,2.83c1.21,1.01,3.24,2.63,4.25,3.84c1.01,1.21,1.01,2.02,1.01,3.24c0,1.21,0,2.83-0.2,4.04
		c-0.2,1.21-0.61,2.02-1.21,2.63c-0.61,0.61-1.42,1.01-3.44,1.82c-2.02,0.81-5.26,2.02-6.88,3.03c-1.62,1.01-1.62,1.82-2.02,3.64
		c-0.4,1.82-1.21,4.65-2.02,7.08c-0.81,2.43-1.62,4.45-2.02,6.07s-0.4,2.83-0.2,3.84c0.2,1.01,0.61,1.82,1.42,4.04
		c0.81,2.22,2.02,5.86,2.63,8.49c0.61,2.63,0.61,4.25,0.61,5.66c0,1.42,0,2.63,0.2,3.44c0.2,0.81,0.61,1.21,1.42,1.42
		c0.81,0.2,2.02,0.2,2.63,0.61c0.61,0.4,0.61,1.21,0.61,2.22c0,1.01,0,2.22,0.2,3.03c0.2,0.81,0.61,1.21,1.21,1.82
		c0.61,0.61,1.42,1.42,2.22,1.82c0.81,0.41,1.62,0.41,2.63,0.81c1.01,0.4,2.22,1.21,3.44,1.62c1.21,0.4,2.43,0.4,4.55,0.4
		c0.48,0,1,0,1.53,0.07c0-0.02-0.01-0.05-0.01-0.07c-1.21-3.64-0.61-6.07-0.3-8.49c0.3-2.43,0.3-4.85,0.91-6.67
		c0.61-1.82,1.82-3.03,2.83-4.85c1.01-1.82,1.82-4.25,2.02-6.07c0.2-1.82-0.2-3.03,0.2-5.05c0.4-2.02,1.62-4.85,2.22-7.08
		c0.61-2.22,0.61-3.84,1.62-6.07c1.01-2.22,3.03-5.05,7.08-9.91c4.04-4.85,10.11-11.73,13.34-15.57c3.24-3.84,3.64-4.65,3.64-5.46
		c0-0.81-0.4-1.62-0.61-2.63c-0.2-1.01-0.2-2.22,0.61-2.83c0.81-0.61,2.43-0.61,3.64-0.61c1.21,0,2.02,0,2.63-0.4
		c0.61-0.41,1.01-1.21,2.83-4.45c1.82-3.24,5.05-8.9,7.89-13.34c2.83-4.45,5.26-7.68,6.07-9.91c0.81-2.22,0-3.44-0.4-4.65
		s-0.4-2.43-0.61-3.84c-0.2-1.42-0.61-3.03-0.4-4.25c0.2-1.21,1.01-2.02,2.43-5.66c1.41-3.64,3.44-10.11,4.45-13.95
		c1.01-3.84,1.01-5.06,0.81-6.27c-0.2-1.21-0.61-2.43-0.61-3.24s0.4-1.21,0.81-1.82c0.4-0.61,0.81-1.41,1.01-2.22
		c0.2-0.81,0.2-1.62-0.41-2.93c-0.61-1.31-1.82-3.13-1.82-4.35c0-2.43,1.21-3.03,1.82-3.94c0.61-0.91,0.61-2.12,1.21-5.96
		c0.61-3.84,1.82-10.31,2.63-15.77c0.81-5.46,1.21-9.91,1.62-13.14c0.4-3.23,0.81-5.26,1.21-7.48s0.81-4.65,1.62-6.87
		c0.81-2.22,2.02-4.25,2.63-5.46c0.61-1.21,0.61-1.62,0.4-2.43c-0.2-0.81-0.61-2.02-0.81-3.24c-0.2-1.21-0.2-2.43,0-3.64
		c0.2-1.21,0.61-2.43,1.21-4.04c0.61-1.62,1.42-3.64,1.82-4.85c0.4-1.21,0.4-1.62,0-2.63c-0.4-1.01-1.21-2.63-1.42-3.44
		c-0.2-0.81,0.2-0.81,2.22-2.22c2.02-1.42,5.66-4.25,7.48-5.86c1.82-1.62,1.82-2.02,1.62-3.03c-0.2-1.01-0.61-2.63-0.61-3.84
		c0-1.21,0.4-2.02,1.01-3.44c0.61-1.42,1.41-3.44,2.63-5.46c1.21-2.02,2.83-4.04,3.64-5.86c0.81-1.82,0.81-3.44,1.21-4.65
		c0.41-1.21,1.21-2.02,1.62-3.44c0.4-1.42,0.4-3.44,1.01-5.26c0.61-1.82,1.82-3.44,2.43-4.45c0.61-1.01,0.61-1.42,0.4-1.62
		c-0.2-0.2-0.61-0.2-1.82-1.41c-1.21-1.21-3.24-3.64-4.45-5.06c-1.21-1.42-1.62-1.82-1.82-2.22c-0.2-0.4-0.2-0.81-0.4-2.02
		c-0.2-1.21-0.61-3.23-0.81-5.26c-0.2-2.02-0.2-4.04-0.41-5.26c-0.2-1.21-0.61-1.62-0.4-2.63c0.2-1.01,1.01-2.63,1.62-4.04
		c0.61-1.42,1.01-2.63,1.62-4.25c0.61-1.62,1.42-3.64,2.83-5.86c1.42-2.22,3.44-4.65,4.85-6.27c1.4-1.6,2.21-2.41,3.01-2.82
		C419.59,94.62,418.43,94.66,417.51,94.8z"/>
</g>
<path id="南高屏" class="st2" d="M317.54,436.78c1.2,6.03,0.59,10.86,0.49,13.88c-0.1,3.03,0.3,4.25,0.91,5.05
	c0.61,0.81,1.42,1.21,1.82,1.62c0.4,0.4,0.4,0.81-0.51,1.92c-0.91,1.11-2.73,2.93-2.73,4.14c0,2.43-0.61,5.46-0.71,7.58
	c-0.1,2.12,0.3,3.34,0.3,4.95c0,1.62-0.4,3.64-0.61,4.85c-0.2,1.21-0.2,1.62-0.51,1.82c-0.3,0.2-0.91,0.2-1.31-0.2
	s-0.61-1.21-0.71-2.22c-0.1-1.01-0.1-2.22-3.74-3.44c-2.43-2.43-3.03-3.03-3.54-3.34c-0.51-0.3-0.91-0.3-1.21,0.3
	c-0.3,0.61-0.51,1.82-0.61,2.93c-0.1,1.11-0.1,2.12-0.51,2.63c-0.4,0.5-1.21,0.5-1.82-0.4c-0.61-0.91-1.01-2.73-2.12-4.65
	c-1.11-1.92-2.93-3.94-4.25-5.56c-1.31-1.62-2.12-2.83-2.53-3.64c-0.4-0.81-0.4-1.21-0.2-2.22c0.2-1.01,0.61-2.63,1.01-4.04
	c0.4-1.42,0.81-2.63,1.01-3.54c0.2-0.91,0.2-1.52-1.01-3.94c-4.85-7.28-6.67-10.31-7.58-12.03c-0.91-1.72-0.91-2.12-1.31-2.53
	c-0.4-0.4-1.21-0.81-4.04-3.13c-2.83-2.33-7.68-6.57-13.75-12.64c-1.21-1.21-2.43-1.82-3.44-2.33c-1.01-0.5-1.82-0.91-2.43-1.31
	c-0.61-0.4-1.01-0.81-1.42-1.42c-0.4-0.61-0.81-1.42-1.21-2.02c-0.4-0.61-0.81-1.01-1.21-0.81c-0.4,0.2-0.81,1.01-1.21,1.62
	c-0.4,0.61-0.81,1.01-1.42,1.01c-0.61,0-1.42-0.4-2.63-1.01c-1.21-0.61-2.83-1.42-4.25-2.22c-1.42-0.81-2.63-1.62-3.44-2.17
	c-0.81-0.56-1.21-0.86-1.82-1.01c-0.61-0.15-1.42-0.15-2.43-0.5c-1.01-0.35-2.22-1.06-2.83-1.57c-0.61-0.5-0.61-0.81-0.61-1.06
	s0-0.46,0.51-0.2c0.51,0.25,1.52,0.96,2.12,1.31c0.61,0.35,0.81,0.35,0.96,0.2c0.15-0.15,0.25-0.46,0.05-0.86
	c-0.2-0.4-0.71-0.91-1.36-1.57c-0.66-0.66-1.47-1.47-2.27-2.27c-0.81-0.81-1.62-1.62-3.03-3.24c-1.42-1.62-3.44-4.04-4.65-5.86
	c-1.21-1.82-1.62-3.03-1.31-3.84c0.3-0.81,1.31-1.21,1.92-1.42c0.61-0.2,0.81-0.2,0.91-0.5c0.1-0.3,0.1-0.91-0.3-1.92
	c-0.4-1.01-1.21-2.43-2.02-3.54c-0.81-1.11-1.62-1.92-3.54-5.36c-1.92-3.44-4.95-9.5-8.59-16.78c-4.85-6.07-9.1-10.31-11.63-12.84
	c-2.53-2.53-3.34-3.34-3.74-5.36c-0.4-2.02-0.4-5.26-0.61-7.08c-0.2-1.82-0.61-2.22-1.01-2.63c-0.4-0.4-0.81-0.81-0.81-1.41
	c0-0.61,0.4-1.42,1.01-3.64c0.61-2.22,1.42-5.86,2.02-9.3c0.51-2.87,0.87-5.61,1.22-7.96c3.05-0.53,4.05-0.04,5.05,0.38
	c1.21,0.5,2.43,0.91,3.44,1.31c1.01,0.4,1.82,0.81,2.43,0.81c0.61,0,1.01-0.4,1.42-1.01c0.4-0.61,0.81-1.42,1.21-2.02
	c0.4-0.61,0.81-1.01,1.21-1.21c0.4-0.2,0.81-0.2,1.21,0c0.4,0.2,0.81,0.61,1.21,0.81c0.4,0.2,0.81,0.2,1.01,0
	c0.2-0.2,0.2-0.61,0-1.21c-0.2-0.61-0.61-1.42-0.4-2.02c0.2-0.61,1.01-1.01,2.02-2.02c1.01-1.01,2.22-2.63,3.44-3.64
	c1.21-1.01,2.43-1.42,3.44-2.02c1.01-0.61,1.82-1.41,2.63-1.82c0.81-0.4,1.62-0.4,2.43-0.4c0.81,0,1.62,0,2.63,0.2
	c1.01,0.2,2.22,0.61,2.83,0.61c0.61,0,0.61-0.4,1.01-0.61c0.4-0.2,1.21-0.2,2.02-0.4c0.81-0.2,1.62-0.61,2.22-0.81
	c0.61-0.2,1.01-0.2,1.21,0c0.2,0.2,0.2,0.61,1.01,1.41c0.81,0.81,2.43,2.02,3.44,3.03c1.01,1.01,1.42,1.82,2.02,2.43
	c0.61,0.61,1.41,1.01,2.02,1.42c0.61,0.4,1.01,0.81,1.21,1.21c0.2,0.4,0.2,0.81,0,1.21c-0.2,0.4-0.61,0.81-1.01,1.21
	c-0.4,0.4-0.81,0.81-0.81,1.21s0.4,0.81,1.01,1.82c0.61,1.01,1.42,2.63,2.02,3.84c0.61,1.21,1.01,2.02,1.42,2.83
	c0.4,0.81,0.81,1.62,1.01,2.22c0.2,0.61,0.2,1.01,0.61,1.21c0.4,0.2,1.21,0.2,1.62,0c0.4-0.2,0.4-0.61,0.61-0.61
	c0.2,0,0.61,0.4,0.81,0.4c0.2,0,0.2-0.4,0.2-0.81s0-0.81,0.4-1.42c0.4-0.61,1.21-1.42,1.62-1.62c0.4-0.2,0.4,0.2,0.4,0.61
	c0,0.41,0,0.81,0,1.21s0,0.81,0.91,1.01c0.79,0.18,2.29,0.2,5.08,0.2c0.09-0.28,0.18-0.55,0.28-0.81c0.61-1.62,1.42-2.83,2.02-4.25
	c0.61-1.42,1.01-3.03,2.22-4.25c1.21-1.21,3.23-2.02,5.26-3.03c2.02-1.01,4.04-2.22,5.26-3.44c1.21-1.21,1.62-2.43,2.43-3.64
	c0.81-1.21,2.02-2.43,3.64-3.64c1.62-1.21,3.64-2.43,5.26-3.44c1.62-1.01,2.83-1.82,3.74-2.53c0.84-0.65,1.42-1.22,3.39-4.13
	c0.25,0.07,0.49,0.13,0.76,0.19c1.01,0.2,2.22,0.2,4.35,0.2c1.78,0,4.19,0,9.2,0c0,0.4,0.4,0.81,0.81,1.21
	c0.4,0.4,0.81,0.81,1.01,1.21c0.2,0.4,0.2,0.81-0.2,1.01c-0.4,0.2-1.21,0.2-2.02,0.4c-0.81,0.2-1.62,0.61-2.43,0.81
	c-0.81,0.2-1.62,0.2-2.02,0.4c-0.4,0.2-0.4,0.61-0.4,1.21c0,0.61,0,1.42,0.2,2.02c0.2,0.61,0.61,1.01,1.62,1.21
	c1.01,0.2,2.63,0.2,3.84,0.4c1.21,0.2,2.02,0.61,2.22,1.21c0.2,0.61-0.2,1.42-0.4,2.43c-0.19,0.97-0.2,2.12,0.15,3.1
	c-1.18,0.4-2.04,0.54-2.98,0.94c-1.42,0.61-3.03,1.82-4.25,2.63c-1.21,0.81-2.02,1.21-2.83,2.02s-1.62,2.02-2.43,3.03
	c-0.81,1.01-1.62,1.82-2.22,2.63c-0.61,0.81-1.01,1.62-1.42,2.63c-0.4,1.01-0.81,2.22-1.01,3.23c-0.2,1.01-0.2,1.82-0.4,4.45
	c-0.2,2.63-0.61,7.08-0.81,10.11c-0.2,3.03-0.2,4.65-0.4,5.66c-0.2,1.01-0.61,1.42-1.01,1.82c-0.4,0.4-0.81,0.81-1.21,1.21
	c-0.41,0.4-0.81,0.81-1.21,1.42c-0.4,0.61-0.81,1.42-1.01,2.22c-0.2,0.81-0.2,1.62,0,2.43c0.2,0.81,0.61,1.62,1.01,2.22
	c0.4,0.61,0.81,1.01,1.21,2.43c0.4,1.42,0.81,3.84,1.21,5.26c0.4,1.42,0.81,1.82,2.02,2.83c1.21,1.01,3.24,2.63,4.25,3.84
	c1.01,1.21,1.01,2.02,1.01,3.24c0,1.21,0,2.83-0.2,4.04c-0.2,1.21-0.61,2.02-1.21,2.63c-0.61,0.61-1.42,1.01-3.44,1.82
	c-2.02,0.81-5.26,2.02-6.88,3.03c-1.62,1.01-1.62,1.82-2.02,3.64c-0.4,1.82-1.21,4.65-2.02,7.08c-0.81,2.43-1.62,4.45-2.02,6.07
	c-0.4,1.62-0.4,2.83-0.2,3.84c0.2,1.01,0.61,1.82,1.42,4.04c0.81,2.22,2.02,5.86,2.63,8.49c0.61,2.63,0.61,4.25,0.61,5.66
	c0,1.42,0,2.63,0.2,3.44c0.2,0.81,0.61,1.21,1.42,1.42c0.81,0.2,2.02,0.2,2.63,0.61c0.61,0.4,0.61,1.21,0.61,2.22
	c0,1.01,0,2.22,0.2,3.03c0.2,0.81,0.61,1.21,1.21,1.82c0.61,0.61,1.42,1.42,2.22,1.82c0.81,0.41,1.62,0.41,2.63,0.81
	c1.01,0.4,2.22,1.21,3.44,1.62c1.21,0.4,2.43,0.4,4.55,0.4C316.49,436.71,317.02,436.71,317.54,436.78z"/>
<path id="雲嘉" class="st0" d="M217.73,245.44c-4.61,5.8-6.39,8.77-8.07,12.03c-1.72,3.34-3.34,6.98-4.35,10.21
	c-1.01,3.24-1.42,6.07-1.62,8.69c-0.2,2.63-0.2,5.05,0,7.08c0.2,2.02,0.61,3.64,0.81,5.26c0.2,1.62,0.2,3.24,0.2,5.46
	c0,2.22,0,5.06-0.2,7.48c-0.2,2.43-0.61,4.45-1.01,7.08c-0.07,0.43-0.13,0.88-0.2,1.34c3.05-0.53,4.05-0.04,5.05,0.38
	c1.21,0.5,2.43,0.91,3.44,1.31c1.01,0.4,1.82,0.81,2.43,0.81c0.61,0,1.01-0.4,1.42-1.01c0.4-0.61,0.81-1.42,1.21-2.02
	c0.4-0.61,0.81-1.01,1.21-1.21c0.4-0.2,0.81-0.2,1.21,0c0.4,0.2,0.81,0.61,1.21,0.81c0.4,0.2,0.81,0.2,1.01,0
	c0.2-0.2,0.2-0.61,0-1.21c-0.2-0.61-0.61-1.42-0.4-2.02c0.2-0.61,1.01-1.01,2.02-2.02c1.01-1.01,2.22-2.63,3.44-3.64
	c1.21-1.01,2.43-1.42,3.44-2.02c1.01-0.61,1.82-1.41,2.63-1.82c0.81-0.4,1.62-0.4,2.43-0.4c0.81,0,1.62,0,2.63,0.2
	c1.01,0.2,2.22,0.61,2.83,0.61c0.61,0,0.61-0.4,1.01-0.61c0.4-0.2,1.21-0.2,2.02-0.4c0.81-0.2,1.62-0.61,2.22-0.81
	c0.61-0.2,1.01-0.2,1.21,0c0.2,0.2,0.2,0.61,1.01,1.41c0.81,0.81,2.43,2.02,3.44,3.03c1.01,1.01,1.42,1.82,2.02,2.43
	c0.61,0.61,1.41,1.01,2.02,1.42c0.61,0.4,1.01,0.81,1.21,1.21c0.2,0.4,0.2,0.81,0,1.21c-0.2,0.4-0.61,0.81-1.01,1.21
	c-0.4,0.4-0.81,0.81-0.81,1.21s0.4,0.81,1.01,1.82c0.61,1.01,1.42,2.63,2.02,3.84c0.61,1.21,1.01,2.02,1.42,2.83
	c0.4,0.81,0.81,1.62,1.01,2.22c0.2,0.61,0.2,1.01,0.61,1.21c0.4,0.2,1.21,0.2,1.62,0c0.4-0.2,0.4-0.61,0.61-0.61
	c0.2,0,0.61,0.4,0.81,0.4c0.2,0,0.2-0.4,0.2-0.81s0-0.81,0.4-1.42c0.4-0.61,1.21-1.42,1.62-1.62c0.4-0.2,0.4,0.2,0.4,0.61
	c0,0.41,0,0.81,0,1.21s0,0.81,0.91,1.01c0.79,0.18,2.29,0.2,5.08,0.2c0.09-0.28,0.18-0.55,0.28-0.81c0.61-1.62,1.42-2.83,2.02-4.25
	c0.61-1.42,1.01-3.03,2.22-4.25c1.21-1.21,3.23-2.02,5.26-3.03c2.02-1.01,4.04-2.22,5.26-3.44c1.21-1.21,1.62-2.43,2.43-3.64
	c0.81-1.21,2.02-2.43,3.64-3.64c1.62-1.21,3.64-2.43,5.26-3.44c1.62-1.01,2.83-1.82,3.74-2.53c0.84-0.65,1.42-1.22,3.39-4.13
	c-0.7-0.2-1.38-0.42-2.28-0.42c-1.21,0-2.83,0.4-4.04,0.2c-1.21-0.2-2.02-1.01-3.03-2.22c-1.01-1.21-2.22-2.83-3.24-3.84
	c-1.01-1.01-1.82-1.42-2.02-1.82c-0.2-0.41,0.2-0.81,0.4-1.42c0.2-0.61,0.2-1.42,0-2.22c-0.2-0.81-0.61-1.62-1.21-2.22
	c-0.61-0.61-1.42-1.01-2.63-1.42c-1.21-0.4-2.83-0.81-3.84-1.21c-1.01-0.4-1.42-0.81-1.62-1.21c-0.2-0.4-0.2-0.81-0.4-1.01
	c-0.2-0.2-0.61-0.2-1.21-0.4c-0.61-0.2-1.42-0.61-2.43-0.4c-1.01,0.2-2.22,1.01-3.44,1.42c-1.21,0.4-2.43,0.4-3.64,0.2
	c-1.21-0.2-2.43-0.61-3.23-0.61c-0.81,0-1.21,0.4-1.42,0.4c-0.2,0-0.2-0.4-0.2-1.21c0-0.81,0-2.02,0-3.24c0-1.21,0-2.43,0.2-3.24
	c0.2-0.81,0.61-1.21,0.81-2.02c0.2-0.81,0.2-2.02,0.2-3.03c0-1.01,0-1.82,0.2-2.43c0.2-0.61,0.61-1.01,0.61-1.42
	c0-0.4-0.4-0.81-0.81-1.21c-0.4-0.4-0.81-0.81-1.42-1.01c-0.61-0.2-1.42-0.2-3.24-0.2c-1.82,0-4.65,0-6.87-0.2
	c-2.22-0.2-3.84-0.61-5.86-0.81c-2.02-0.2-4.45-0.2-6.27-0.61c-1.82-0.4-3.03-1.21-4.45-1.62c-1.42-0.4-3.03-0.4-4.65-0.4
	c-1.62,0-3.23,0-4.25,0.2c-1.01,0.2-1.42,0.61-2.43,1.01c-1.01,0.4-2.63,0.81-3.64,1.01c-1.01,0.2-1.42,0.2-1.82,0.2
	c-0.4,0-0.81,0-1.41-0.2c-0.61-0.2-1.42-0.61-2.43-1.11C218.64,245.94,218.19,245.71,217.73,245.44z"/>
<path id="中彰投" class="st3" d="M346.07,163.76c-0.72,0.65-1.34,0.95-2.05,1.31c-1.01,0.51-2.22,1.11-7.08,2.33
	c-1.21,1.21-1.21,2.43-1.62,3.44c-0.4,1.01-1.21,1.82-1.62,2.02c-0.4,0.2-0.4-0.2-0.81-0.4c-0.41-0.2-1.21-0.2-2.43,0.2
	c-1.21,0.4-2.83,1.21-3.84,2.02c-1.01,0.81-1.42,1.62-1.82,2.02c-0.4,0.4-0.81,0.4-1.21,0.4s-0.81,0-1.41,0.61
	c-0.61,0.61-1.42,1.82-2.02,2.43c-0.61,0.61-1.01,0.61-1.42,0.61c-0.41,0-0.81,0-1.42,0c-0.61,0-1.42,0-2.22,0.61
	c-0.81,0.61-1.62,1.82-2.22,2.22c-0.61,0.4-1.01,0-1.62-0.2c-0.61-0.2-1.42-0.2-2.02-0.4c-0.61-0.2-1.01-0.61-1.21-1.01
	c-0.2-0.4-0.2-0.81-0.4-1.01c-0.2-0.2-0.61-0.2-1.21,0c-0.61,0.2-1.42,0.61-2.02,0.81c-0.61,0.2-1.01,0.2-1.62,0
	c-0.61-0.2-1.41-0.61-2.22-0.81c-0.81-0.2-1.62-0.2-2.43-0.2c-0.81,0-1.62,0-2.22,0c-0.61,0-1.01,0-1.42-0.2
	c-0.4-0.2-0.81-0.61-1.42-1.21c-0.61-0.61-1.42-1.41-2.02-1.82c-0.61-0.4-1.01-0.4-1.82-0.4s-2.02,0-2.83,0.2
	c-0.81,0.2-1.21,0.61-2.02,1.01c-0.81,0.4-2.02,0.81-3.23,1.42c-1.21,0.61-2.43,1.42-3.44,1.62c-1.01,0.2-1.82-0.2-2.63-0.4
	c-0.81-0.2-1.62-0.2-2.83-0.81c-1.21-0.61-2.83-1.82-4.25-2.63c-1.42-0.81-2.63-1.21-3.64-1.82c-1.01-0.61-1.82-1.42-2.53-2.12
	c-0.56-0.56-1.05-1.05-3.01-3.01c-2.26,3.85-4.46,7.55-5.78,10.19c-1.42,2.83-1.82,4.45-2.63,6.67c-0.81,2.22-2.02,5.05-3.44,7.28
	c-1.42,2.22-3.03,3.84-4.65,6.67c-1.62,2.83-3.23,6.88-4.45,9.5c-1.21,2.63-2.02,3.84-3.03,5.26c-1.01,1.42-2.22,3.03-3.44,4.65
	c-1.21,1.62-2.43,3.23-3.84,5.46c-1.42,2.22-3.03,5.06-4.15,8.29c-1.11,3.24-1.72,6.88-5.36,10.51c-0.11,0.14-0.22,0.27-0.32,0.4
	c0.47,0.28,0.92,0.5,1.33,0.71c1.01,0.51,1.82,0.91,2.43,1.11c0.61,0.2,1.01,0.2,1.41,0.2c0.4,0,0.81,0,1.82-0.2
	c1.01-0.2,2.63-0.61,3.64-1.01c1.01-0.4,1.41-0.81,2.43-1.01c1.01-0.2,2.63-0.2,4.25-0.2c1.62,0,3.24,0,4.65,0.4
	c1.42,0.4,2.63,1.21,4.45,1.62c1.82,0.4,4.25,0.4,6.27,0.61c2.02,0.2,3.64,0.61,5.86,0.81c2.22,0.2,5.06,0.2,6.87,0.2
	c1.82,0,2.63,0,3.24,0.2c0.61,0.2,1.01,0.61,1.42,1.01c0.4,0.4,0.81,0.81,0.81,1.21c0,0.4-0.4,0.81-0.61,1.42
	c-0.2,0.61-0.2,1.42-0.2,2.43c0,1.01,0,2.22-0.2,3.03c-0.2,0.81-0.61,1.21-0.81,2.02c-0.2,0.81-0.2,2.02-0.2,3.24
	c0,1.21,0,2.43,0,3.24c0,0.81,0,1.21,0.2,1.21c0.2,0,0.61-0.4,1.42-0.4c0.81,0,2.02,0.4,3.23,0.61c1.21,0.2,2.43,0.2,3.64-0.2
	c1.21-0.4,2.43-1.21,3.44-1.42c1.01-0.2,1.82,0.2,2.43,0.4c0.61,0.2,1.01,0.2,1.21,0.4c0.2,0.2,0.2,0.61,0.4,1.01
	c0.2,0.4,0.61,0.81,1.62,1.21c1.01,0.4,2.63,0.81,3.84,1.21c1.21,0.4,2.02,0.81,2.63,1.42c0.61,0.61,1.01,1.42,1.21,2.22
	c0.2,0.81,0.2,1.62,0,2.22c-0.2,0.61-0.61,1.01-0.4,1.42c0.2,0.4,1.01,0.81,2.02,1.82c1.01,1.01,2.22,2.63,3.24,3.84
	c1.01,1.21,1.82,2.02,3.03,2.22c1.21,0.2,2.83-0.2,4.04-0.2c0.9,0,1.58,0.22,2.28,0.42c0.25,0.07,0.49,0.13,0.76,0.19
	c1.01,0.2,2.22,0.2,4.35,0.2c1.78,0,4.19,0,9.2,0c0-0.4,0.4-0.81,1.21-1.82c0.81-1.01,2.02-2.63,2.83-4.04
	c0.81-1.42,1.21-2.63,1.62-3.24c0.4-0.61,0.81-0.61,2.02-0.81c1.21-0.2,3.24-0.61,4.45-0.81c1.21-0.2,1.62-0.2,1.82-0.81
	c0.2-0.61,0.2-1.82,0.2-2.83c0-1.01,0-1.82,0.81-2.63c0.81-0.81,2.43-1.62,3.44-2.02c1.01-0.4,1.42-0.4,2.02-2.83
	c0.61-2.43,1.42-7.28,2.02-10.11c0.61-2.83,1.01-3.64,1.01-4.25c0-0.61-0.4-1.01-1.01-1.62c-0.61-0.61-1.42-1.42-2.22-2.02
	c-0.81-0.61-1.62-1.01-2.02-1.42c-0.4-0.4-0.4-0.81,0.2-1.82c0.61-1.01,1.82-2.63,2.63-3.84c0.81-1.21,1.21-2.02,1.62-2.83
	c0.4-0.81,0.81-1.62,1.21-2.63c0.4-1.01,0.81-2.22,1.21-3.84c0.4-1.62,0.81-3.64,0.81-5.05c0-1.42-0.4-2.22-0.81-2.83
	c-0.4-0.61-0.81-1.01-1.21-1.42c-0.4-0.4-0.81-0.81-1.01-1.42c-0.2-0.61-0.2-1.42,0.81-3.23c1.01-1.82,3.03-4.65,4.45-6.47
	c1.42-1.82,2.22-2.63,2.43-3.44c0.2-0.81-0.2-1.62-0.4-2.43c-0.2-0.81-0.2-1.62,0-2.43c0.2-0.81,0.61-1.62,1.42-2.02
	c0.81-0.4,2.02-0.4,2.83-0.4s1.21,0,0.81-1.01c-0.4-1.01-1.62-3.03-2.43-4.65c-0.81-1.62-1.21-2.83-1.42-4.25
	c-0.2-1.42-0.2-3.03-0.2-4.04c0-1.01,0-1.42,0.61-2.02c0.61-0.61,1.82-1.42,3.64-3.34c1.52-1.61,3.47-3.99,6.9-8.27
	c-0.08-0.04-0.15-0.08-0.23-0.12c-1.21-0.61-2.43-1.01-3.44-1.01c-1.01,0-1.82,0.4-2.83,0.61c-1.01,0.2-2.22,0.2-3.23,0.2
	c-1.01,0-1.82,0-2.43-0.4c-0.61-0.4-1.01-1.21-1.82-2.53C348,167.01,347.06,165.59,346.07,163.76z"/>
<path id="桃竹苗" class="st4" d="M258.81,170.54c0.16-0.28,0.32-0.55,0.49-0.83c2.43-4.14,4.85-8.39,8.49-15.67
	c1.21-2.43,3.64-4.85,5.26-6.67c1.62-1.82,2.43-3.03,3.44-3.64c1.01-0.61,2.22-0.61,3.44-0.81c1.21-0.2,2.43-0.61,3.64-2.02
	c1.21-1.42,2.43-3.84,3.44-5.26c1.01-1.41,1.82-1.82,2.22-2.63c0.4-0.81,0.4-2.02,0.61-3.44c0.2-1.42,0.61-3.03,0.81-5.26
	c0.2-2.22,0.2-5.05,1.21-7.28c1.01-2.22,3.03-3.84,4.85-5.86c1.82-2.02,3.44-4.45,5.06-6.67c1.62-2.22,3.23-4.25,4.85-5.86
	c1.62-1.62,3.24-2.83,4.45-3.64c1.21-0.81,2.02-1.21,4.25-2.63c2.22-1.42,5.86-3.84,7.88-5.46c2.02-1.62,2.43-2.43,4.65-3.23
	c2.22-0.81,6.27-1.62,9.1-2.22c0.36-0.08,0.7-0.15,1.02-0.22c1.82,0.53,2.64,0.77,3.32,0.93c1.31,0.3,2.12,0.3,2.93,0.71
	c0.81,0.4,1.62,1.21,2.63,2.02c1.01,0.81,2.22,1.62,2.83,2.43c0.61,0.81,0.61,1.62,0.61,2.43c0,0.81,0,1.62-0.2,2.63
	c-0.2,1.01-0.61,2.22-1.01,3.03c-0.4,0.81-0.81,1.21-1.21,1.62c-0.4,0.4-0.81,0.81-1.42,1.21c-0.61,0.4-1.42,0.81-2.22,1.01
	c-0.81,0.2-1.62,0.2-2.02,0.4c-0.4,0.2-0.4,0.61-0.61,1.42c-0.2,0.81-0.61,2.02-0.41,3.03c0.2,1.01,1.01,1.82,1.82,2.83
	c0.81,1.01,1.62,2.22,2.02,3.44c0.4,1.21,0.4,2.43,0.61,3.23c0.2,0.81,0.61,1.21,1.82,1.62c1.21,0.4,3.24,0.81,4.65,0.61
	c1.42-0.2,2.22-1.01,2.83-1.21c0.61-0.2,1.01,0.2,1.21,1.42c0.2,1.21,0.2,3.24,0.41,4.85c0.2,1.62,0.61,2.83,1.01,4.04
	c0.41,1.21,0.81,2.43,1.62,4.04c0.81,1.62,2.02,3.64,2.83,4.45c0.26,0.26,0.48,0.4,0.71,0.44c-1.1,1.85-2.38,3.62-3.24,5.02
	c-1.11,1.82-1.52,3.03-1.72,4.55c-0.15,1.12-0.19,2.41-0.69,3.5c0.49,0.75,0.46,1.52,0.09,2.46c-0.4,1.01-1.21,2.22-2.22,3.44
	c-1.01,1.21-2.22,2.43-3.64,4.25c-1.42,1.82-3.03,4.25-4.25,5.66c-1.21,1.42-2.02,1.82-3.03,2.33c-1.01,0.51-2.22,1.11-7.08,2.33
	c-1.21,1.21-1.21,2.43-1.62,3.44c-0.4,1.01-1.21,1.82-1.62,2.02c-0.4,0.2-0.4-0.2-0.81-0.4c-0.41-0.2-1.21-0.2-2.43,0.2
	c-1.21,0.4-2.83,1.21-3.84,2.02c-1.01,0.81-1.42,1.62-1.82,2.02c-0.4,0.4-0.81,0.4-1.21,0.4s-0.81,0-1.41,0.61
	c-0.61,0.61-1.42,1.82-2.02,2.43c-0.61,0.61-1.01,0.61-1.42,0.61c-0.41,0-0.81,0-1.42,0c-0.61,0-1.42,0-2.22,0.61
	c-0.81,0.61-1.62,1.82-2.22,2.22c-0.61,0.4-1.01,0-1.62-0.2c-0.61-0.2-1.42-0.2-2.02-0.4c-0.61-0.2-1.01-0.61-1.21-1.01
	c-0.2-0.4-0.2-0.81-0.4-1.01c-0.2-0.2-0.61-0.2-1.21,0c-0.61,0.2-1.42,0.61-2.02,0.81c-0.61,0.2-1.01,0.2-1.62,0
	c-0.61-0.2-1.41-0.61-2.22-0.81c-0.81-0.2-1.62-0.2-2.43-0.2c-0.81,0-1.62,0-2.22,0c-0.61,0-1.01,0-1.42-0.2
	c-0.4-0.2-0.81-0.61-1.42-1.21c-0.61-0.61-1.42-1.41-2.02-1.82c-0.61-0.4-1.01-0.4-1.82-0.4s-2.02,0-2.83,0.2
	c-0.81,0.2-1.21,0.61-2.02,1.01c-0.81,0.4-2.02,0.81-3.23,1.42c-1.21,0.61-2.43,1.42-3.44,1.62c-1.01,0.2-1.82-0.2-2.63-0.4
	c-0.81-0.2-1.62-0.2-2.83-0.81c-1.21-0.61-2.83-1.82-4.25-2.63c-1.42-0.81-2.63-1.21-3.64-1.82c-1.01-0.61-1.82-1.42-2.53-2.12
	C261.27,173,260.77,172.51,258.81,170.54z"/>
<path id="北北基" class="st5" d="M337.96,81.23c1.82,0.53,2.64,0.77,3.32,0.93c1.31,0.3,2.12,0.3,2.93,0.71
	c0.81,0.4,1.62,1.21,2.63,2.02c1.01,0.81,2.22,1.62,2.83,2.43c0.61,0.81,0.61,1.62,0.61,2.43c0,0.81,0,1.62-0.2,2.63
	c-0.2,1.01-0.61,2.22-1.01,3.03c-0.4,0.81-0.81,1.21-1.21,1.62c-0.4,0.4-0.81,0.81-1.42,1.21c-0.61,0.4-1.42,0.81-2.22,1.01
	c-0.81,0.2-1.62,0.2-2.02,0.4c-0.4,0.2-0.4,0.61-0.61,1.42c-0.2,0.81-0.61,2.02-0.41,3.03c0.2,1.01,1.01,1.82,1.82,2.83
	c0.81,1.01,1.62,2.22,2.02,3.44c0.4,1.21,0.4,2.43,0.61,3.23c0.2,0.81,0.61,1.21,1.82,1.62c1.21,0.4,3.24,0.81,4.65,0.61
	c1.42-0.2,2.22-1.01,2.83-1.21c0.61-0.2,1.01,0.2,1.21,1.42c0.2,1.21,0.2,3.24,0.41,4.85c0.2,1.62,0.61,2.83,1.01,4.04
	c0.41,1.21,0.81,2.43,1.62,4.04c0.81,1.62,2.02,3.64,2.83,4.45c0.26,0.26,0.48,0.4,0.71,0.44c0.47,0.09,0.96-0.23,1.92-0.64
	c1.42-0.61,3.84-1.41,5.86-2.22c2.02-0.81,3.64-1.62,4.85-2.22c1.21-0.61,2.02-1.01,2.22-2.22c0.2-1.21-0.2-3.23-0.2-4.45
	c0-1.21,0.41-1.62,3.64-3.64c3.24-2.02,9.3-5.66,12.74-7.89c3.44-2.22,4.25-3.03,4.85-4.04c0.61-1.01,1.01-2.22,1.42-2.43
	c0.41-0.2,0.81,0.61,1.62,0.81c0.81,0.2,2.02-0.2,2.83-0.81c0.81-0.61,1.21-1.41,1.62-2.22c0.4-0.81,0.81-1.62,2.22-2.63
	c1.42-1.01,3.84-2.22,5.46-3.03c1.62-0.81,2.43-1.21,3.74-1.42c0.91-0.14,2.07-0.18,4.33,0.21c0.01,0,0.01-0.01,0.02-0.01
	c0.81-0.4,1.62-0.4,2.43-0.61c0.81-0.2,1.62-0.61,2.02-1.01c0.4-0.4,0.4-0.81,0.2-1.42c-0.2-0.61-0.61-1.42-1.42-2.02
	c-0.81-0.61-2.02-1.01-3.03-1.21c-1.01-0.2-1.82-0.2-2.43-1.01c-0.61-0.81-1.01-2.43-1.82-3.84c-0.81-1.42-2.02-2.63-3.44-3.24
	c-1.41-0.61-3.03-0.61-4.45-0.81c-1.41-0.2-2.63-0.61-3.84-1.01c-1.21-0.4-2.43-0.81-3.44-1.21c-1.01-0.4-1.82-0.81-3.03-1.01
	c-1.21-0.2-2.83-0.2-4.25-0.4c-1.41-0.2-2.63-0.61-3.44-1.21c-0.81-0.61-1.21-1.42-2.33-2.43c-1.11-1.01-2.93-2.22-4.15-4.65
	c-6.07-1.21-6.07-1.82-6.47-3.13c-0.4-1.31-1.21-3.34-2.22-4.75c-1.01-1.42-2.22-2.22-3.84-2.43c-1.62-0.2-3.64,0.2-5.86,1.42
	c-2.22,1.21-4.65,3.23-6.88,4.85c-2.22,1.62-4.25,2.83-5.46,4.25c-1.21,1.42-1.62,3.03-2.02,4.25c-0.41,1.21-0.81,2.02-1.21,2.63
	c-0.4,0.61-0.81,1.01-2.22,1.82c-1.42,0.81-3.84,2.02-5.86,2.83C341.64,80.34,340.19,80.74,337.96,81.23z"/>
</svg>
