{"accessors":[{"bufferView":0,"componentType":5123,"count":6,"max":[3],"min":[0],"type":"SCALAR"},{"bufferView":1,"componentType":5126,"count":4,"max":[-0.3444778323173523,-0.5642217397689819,5.0736565589904785],"min":[-2.2596991062164307,-0.674424409866333,-1.0066646337509155],"type":"VEC3"},{"bufferView":2,"componentType":5126,"count":4,"max":[0.0009657043847255409,0.9998316168785095,-0.01832442358136177],"min":[0.000965704268310219,0.9998316168785095,-0.01832442358136177],"type":"VEC3"},{"bufferView":3,"componentType":5126,"count":4,"max":[0.2697353959083557,1.0],"min":[0.0,0.0],"type":"VEC2"},{"bufferView":4,"componentType":5123,"count":204,"max":[127],"min":[0],"type":"SCALAR"},{"bufferView":5,"componentType":5126,"count":128,"max":[3.4847593307495117,0.9008161425590515,4.55580472946167],"min":[-3.5788543224334717,-0.8848885297775269,-4.55580472946167],"type":"VEC3"},{"bufferView":6,"componentType":5126,"count":128,"max":[0.9993058443069458,0.99983149766922,1.0],"min":[-0.9977760910987854,-0.9998553395271301,-1.0],"type":"VEC3"},{"bufferView":7,"componentType":5126,"count":128,"max":[0.875,1.0],"min":[0.125,0.0],"type":"VEC2"},{"bufferView":8,"componentType":5123,"count":75,"max":[40],"min":[0],"type":"SCALAR"},{"bufferView":9,"componentType":5126,"count":41,"max":[3.0691280364990234,0.44374561309814453,5.0736565589904785],"min":[-3.2094244956970215,-1.2087113857269287,-4.262500762939453],"type":"VEC3"},{"bufferView":10,"componentType":5126,"count":41,"max":[0.9994924664497375,0.8719251155853271,1.0],"min":[-0.9612607955932617,-0.9989434480667114,-1.0],"type":"VEC3"},{"bufferView":11,"componentType":5126,"count":41,"max":[0.875,1.0],"min":[0.125,0.0],"type":"VEC2"},{"bufferView":12,"componentType":5123,"count":84,"max":[43],"min":[0],"type":"SCALAR"},{"bufferView":13,"componentType":5126,"count":44,"max":[0.8838012218475342,1.6080790758132935,0.8006119728088379],"min":[-0.5114743709564209,-1.608081579208374,-0.8006119728088379],"type":"VEC3"},{"bufferView":14,"componentType":5126,"count":44,"max":[0.9999701976776123,0.9896875023841858,0.9244544506072998],"min":[-0.9999997019767761,-0.9896873831748962,-0.9244323968887329],"type":"VEC3"},{"bufferView":15,"componentType":5126,"count":44,"max":[0.6125012636184692,0.9587710462510586],"min":[0.3812493681907654,0.061524391174316406],"type":"VEC2"},{"bufferView":16,"componentType":5123,"count":6,"max":[3],"min":[0],"type":"SCALAR"},{"bufferView":17,"componentType":5126,"count":4,"max":[-0.1832936853170395,-0.12282790243625641,5.446494102478027],"min":[-2.624584913253784,-0.13709546625614166,-1.1364693641662598],"type":"VEC3"},{"bufferView":18,"componentType":5126,"count":4,"max":[-0.001812016242183745,0.9999971985816956,-0.0015391717897728086],"min":[-0.0018120167078450322,0.9999971985816956,-0.0015391719061881304],"type":"VEC3"},{"bufferView":19,"componentType":5126,"count":4,"max":[0.2697353959083557,1.0],"min":[0.0,0.0],"type":"VEC2"},{"bufferView":20,"componentType":5123,"count":39,"max":[22],"min":[0],"type":"SCALAR"},{"bufferView":21,"componentType":5126,"count":23,"max":[-0.07156375050544739,-0.12282790243625641,5.552718162536621],"min":[-2.879556179046631,-1.5983704328536987,-1.4417572021484375],"type":"VEC3"},{"bufferView":22,"componentType":5126,"count":23,"max":[0.9998139142990112,0.42322418093681335,0.9965609908103943],"min":[-0.9927343726158142,-0.9949596524238586,-0.9045242071151733],"type":"VEC3"},{"bufferView":23,"componentType":5126,"count":23,"max":[0.875,1.0],"min":[0.125,0.0],"type":"VEC2"},{"bufferView":24,"componentType":5123,"count":204,"max":[129],"min":[0],"type":"SCALAR"},{"bufferView":25,"componentType":5126,"count":130,"max":[3.8926637172698975,1.2961913347244263,5.009307861328125],"min":[-4.00738525390625,-1.2795686721801758,-5.015141487121582],"type":"VEC3"},{"bufferView":26,"componentType":5126,"count":130,"max":[0.998318612575531,0.9998109936714172,0.9998830556869507],"min":[-0.9978367686271667,-0.9998341202735901,-0.9994781613349915],"type":"VEC3"},{"bufferView":27,"componentType":5126,"count":130,"max":[0.875,1.0],"min":[0.125,0.0],"type":"VEC2"},{"bufferView":28,"componentType":5123,"count":36,"max":[17],"min":[0],"type":"SCALAR"},{"bufferView":29,"componentType":5126,"count":18,"max":[3.3847177028656006,0.32386064529418945,4.577480316162109],"min":[-2.7119672298431396,-0.3071568012237549,-4.573202610015869],"type":"VEC3"},{"bufferView":30,"componentType":5126,"count":18,"max":[0.00033679805346764624,0.00979580357670784,0.9999651312828064],"min":[-0.999678373336792,-0.005276422947645187,-0.9999520778656006],"type":"VEC3"},{"bufferView":31,"componentType":5126,"count":18,"max":[0.875,1.0],"min":[0.375,0.25],"type":"VEC2"},{"bufferView":32,"componentType":5123,"count":84,"max":[43],"min":[0],"type":"SCALAR"},{"bufferView":33,"componentType":5126,"count":44,"max":[1.1260230541229248,2.5134670734405518,1.0138933658599854],"min":[-0.6872204542160034,-2.5139801502227783,-1.0138617753982544],"type":"VEC3"},{"bufferView":34,"componentType":5126,"count":44,"max":[0.9999983906745911,0.8855776190757751,0.9050275087356567],"min":[-0.9999998807907104,-0.88782799243927,-0.9050455689430237],"type":"VEC3"},{"bufferView":35,"componentType":5126,"count":44,"max":[0.6125012636184692,0.9587710462510586],"min":[0.3812493681907654,0.061524391174316406],"type":"VEC2"}],"asset":{"copyright":null,"generator":"Soft8Soft Verge3D for Maya plug-in","version":"2.0"},"bufferViews":[{"buffer":0,"byteLength":12,"byteOffset":0,"target":34963},{"buffer":0,"byteLength":48,"byteOffset":12,"target":34962},{"buffer":0,"byteLength":48,"byteOffset":60,"target":34962},{"buffer":0,"byteLength":32,"byteOffset":108,"target":34962},{"buffer":0,"byteLength":408,"byteOffset":140,"target":34963},{"buffer":0,"byteLength":1536,"byteOffset":548,"target":34962},{"buffer":0,"byteLength":1536,"byteOffset":2084,"target":34962},{"buffer":0,"byteLength":1024,"byteOffset":3620,"target":34962},{"buffer":0,"byteLength":150,"byteOffset":4644,"target":34963},{"buffer":0,"byteLength":492,"byteOffset":4796,"target":34962},{"buffer":0,"byteLength":492,"byteOffset":5288,"target":34962},{"buffer":0,"byteLength":328,"byteOffset":5780,"target":34962},{"buffer":0,"byteLength":168,"byteOffset":6108,"target":34963},{"buffer":0,"byteLength":528,"byteOffset":6276,"target":34962},{"buffer":0,"byteLength":528,"byteOffset":6804,"target":34962},{"buffer":0,"byteLength":352,"byteOffset":7332,"target":34962},{"buffer":0,"byteLength":12,"byteOffset":7684,"target":34963},{"buffer":0,"byteLength":48,"byteOffset":7696,"target":34962},{"buffer":0,"byteLength":48,"byteOffset":7744,"target":34962},{"buffer":0,"byteLength":32,"byteOffset":7792,"target":34962},{"buffer":0,"byteLength":78,"byteOffset":7824,"target":34963},{"buffer":0,"byteLength":276,"byteOffset":7904,"target":34962},{"buffer":0,"byteLength":276,"byteOffset":8180,"target":34962},{"buffer":0,"byteLength":184,"byteOffset":8456,"target":34962},{"buffer":0,"byteLength":408,"byteOffset":8640,"target":34963},{"buffer":0,"byteLength":1560,"byteOffset":9048,"target":34962},{"buffer":0,"byteLength":1560,"byteOffset":10608,"target":34962},{"buffer":0,"byteLength":1040,"byteOffset":12168,"target":34962},{"buffer":0,"byteLength":72,"byteOffset":13208,"target":34963},{"buffer":0,"byteLength":216,"byteOffset":13280,"target":34962},{"buffer":0,"byteLength":216,"byteOffset":13496,"target":34962},{"buffer":0,"byteLength":144,"byteOffset":13712,"target":34962},{"buffer":0,"byteLength":168,"byteOffset":13856,"target":34963},{"buffer":0,"byteLength":528,"byteOffset":14024,"target":34962},{"buffer":0,"byteLength":528,"byteOffset":14552,"target":34962},{"buffer":0,"byteLength":352,"byteOffset":15080,"target":34962}],"buffers":[{"byteLength":15432,"uri":"book06 outline.bin"}],"cameras":[{"extensions":{"S8S_v3d_camera_data":{"controls":"ORBIT","enablePan":true,"moveSpeed":1.0,"orbitMaxDistance":1000.0,"orbitMaxPolarAngle":3.141592653589793,"orbitMaxZoom":100.0,"orbitMinDistance":0.0,"orbitMinPolarAngle":0.0,"orbitMinZoom":0.009999999776482582,"orbitTarget":[-2.1879467112736477,1.4917196277881963,4.985783434585981],"rotateSpeed":1.0,"viewportFitType":"VERTICAL"}},"name":"perspShape","perspective":{"aspectRatio":1.5,"yfov":0.6605947096585075,"zfar":10000.0,"znear":0.1},"type":"perspective"}],"extensions":{"S8S_v3d_data":{"lights":[{"color":[1,1,1],"intensity":2.5,"name":"__DEFAULT__","profile":"maya","type":"directional"}]}},"extensionsUsed":["S8S_v3d_material_data","S8S_v3d_data","S8S_v3d_camera_data","S8S_v3d_node_data","S8S_v3d_scene_data"],"materials":[{"emissiveFactor":[0.0,0.0,0.0],"extensions":{"S8S_v3d_material_data":{"profile":"maya"}},"name":"aiStandardSurface_ai_book_tag","pbrMetallicRoughness":{"baseColorFactor":[0.710099995136261,0.6280999779701233,0.5152000188827515,1.0],"metallicFactor":0.0,"roughnessFactor":0.20000000298023224}},{"emissiveFactor":[0.0,0.0,0.0],"extensions":{"S8S_v3d_material_data":{"profile":"maya"}},"name":"aiStandardSurface_book_orange","pbrMetallicRoughness":{"baseColorFactor":[0.814300000667572,0.3240000009536743,0.20749999582767487,1.0],"metallicFactor":0.0,"roughnessFactor":0.5759999752044678}},{"extensions":{"S8S_v3d_material_data":{"nodeGraph":{"edges":[{"fromNode":1,"fromOutput":0,"toInput":0,"toNode":0}],"nodes":[{"inputs":[[0.0,0.0,0.0,1],[0,0,0,0],[0,0,0]],"is_active_output":true,"name":"initialParticleSE","outputs":[],"type":"SHADING_ENGINE_MY"},{"inputs":[[0.5,0.5,0.5],[0.0,0.0,0.0],[0.0,0.0,0.0],1.0,0.800000011920929,[1.0,1.0,1.0],0.0,[0.0,0.0,0.0]],"name":"lambert1","outputs":[[0.0,0.0,0.0,0]],"type":"LAMBERT_MY"}]},"profile":"maya"}},"name":"lambert1"},{"extensions":{"S8S_v3d_material_data":{"nodeGraph":{"edges":[{"fromNode":0,"fromOutput":0,"toInput":0,"toNode":1}],"nodes":[{"inputs":[[0.35593602641242716,0.35593602641242716,0.35593602641242716],[0,0,0],[0,0,0],[0,0,0],[0,0,0],[0,0,0]],"name":"aiRaySwitchColor","outputs":[[0,0,0],0],"type":"RAY_SWITCH_AR"},{"inputs":[[0,0,0],1],"is_active_output":true,"name":"aiSkyDomeLightShapeColor","outputs":[],"type":"SKYDOME_LIGHT_AR"}]},"profile":"maya"}},"name":"Verge3D_Environment"}],"meshes":[{"name":"pCube3Shape","primitives":[{"attributes":{"NORMAL":2,"POSITION":1,"TEXCOORD_0":3},"indices":0,"material":2,"mode":4},{"attributes":{"NORMAL":6,"POSITION":5,"TEXCOORD_0":7},"indices":4,"material":1,"mode":4},{"attributes":{"NORMAL":10,"POSITION":9,"TEXCOORD_0":11},"indices":8,"material":0,"mode":4}]},{"name":"pCylinderShape2","primitives":[{"attributes":{"NORMAL":14,"POSITION":13,"TEXCOORD_0":15},"indices":12,"material":1,"mode":4}]},{"name":"polySurfaceShape2","primitives":[{"attributes":{"NORMAL":18,"POSITION":17,"TEXCOORD_0":19},"indices":16,"material":2,"mode":4},{"attributes":{"NORMAL":22,"POSITION":21,"TEXCOORD_0":23},"indices":20,"material":0,"mode":4}]},{"name":"polySurfaceShape3","primitives":[{"attributes":{"NORMAL":26,"POSITION":25,"TEXCOORD_0":27},"indices":24,"material":1,"mode":4},{"attributes":{"NORMAL":30,"POSITION":29,"TEXCOORD_0":31},"indices":28,"material":0,"mode":4}]},{"name":"polySurfaceShape5","primitives":[{"attributes":{"NORMAL":34,"POSITION":33,"TEXCOORD_0":35},"indices":32,"material":1,"mode":4}]}],"nodes":[{"children":[1],"extensions":{"S8S_v3d_node_data":{"hidden":false}},"name":"pCube1","rotation":[0.0,0.0,0.0,1.0],"scale":[6.9695174756955005,1.565578723027189,9.111609637436864],"translation":[0.0,0.0,0.0]},{"extensions":{"S8S_v3d_node_data":{"groupNames":["pCube1"],"hidden":true}},"name":"transform3","rotation":[0.0,0.0,0.0,1.0],"scale":[1.0,1.0,1.0],"translation":[0.0,0.0,0.0]},{"children":[3],"extensions":{"S8S_v3d_node_data":{"hidden":false}},"name":"pCube2","rotation":[0.02297668457885732,-0.026315820829923748,0.000605019736467676,0.9993894053325407],"scale":[1.8452339542412377,0.25912922727970905,6.548363459196986],"translation":[-1.277477769713509,-0.9288115445789707,1.7411773862656168]},{"extensions":{"S8S_v3d_node_data":{"groupNames":["pCube2"],"hidden":true}},"name":"transform4","rotation":[0.0,0.0,0.0,1.0],"scale":[1.0,1.0,1.0],"translation":[0.0,0.0,0.0]},{"extensions":{"S8S_v3d_node_data":{"frustumCulling":true,"hidden":false,"renderOrder":0,"useCastShadows":true,"useShadows":true}},"mesh":0,"name":"pCube3","rotation":[-0.7071067811865477,0.0,0.0,0.7071067811865475],"scale":[1.0,1.0000000000000002,1.0000000000000002],"translation":[0.0,7.489925600779579,0.04892908252519957]},{"extensions":{"S8S_v3d_node_data":{"frustumCulling":true,"hidden":false,"renderOrder":0,"useCastShadows":true,"useShadows":true}},"mesh":1,"name":"pCylinder4","rotation":[0.4999999999999999,-0.5,-0.5000000000000001,0.5000000000000001],"scale":[2.4495029550643643,0.5036980323024466,2.4495029550643643],"translation":[0.0,0.0,0.0]},{"children":[7,8,9],"extensions":{"S8S_v3d_node_data":{"hidden":false}},"name":"pCube4_book_outline","rotation":[-0.7071067811865477,0.0,0.0,0.7071067811865475],"scale":[1.0,1.0000000000000002,1.0000000000000002],"translation":[0.0,7.489925600779579,0.04892908252519957]},{"extensions":{"S8S_v3d_node_data":{"frustumCulling":true,"hidden":false,"renderOrder":0,"useCastShadows":true,"useShadows":true}},"mesh":2,"name":"polySurface1","rotation":[0.0,0.0,0.0,1.0],"scale":[1.0,1.0,1.0],"translation":[0.0,0.0,0.0]},{"extensions":{"S8S_v3d_node_data":{"frustumCulling":true,"hidden":false,"renderOrder":0,"useCastShadows":true,"useShadows":true}},"mesh":3,"name":"polySurface2","rotation":[0.0,0.0,0.0,1.0],"scale":[1.0,1.0,1.0],"translation":[0.0,0.0,0.0]},{"extensions":{"S8S_v3d_node_data":{"hidden":true}},"name":"transform5","rotation":[0.0,0.0,0.0,1.0],"scale":[1.0,1.0,1.0],"translation":[0.0,0.0,0.0]},{"children":[11,12],"extensions":{"S8S_v3d_node_data":{"hidden":false}},"name":"pCylinder5_arrow_outline","rotation":[0.4999999999999999,-0.5,-0.5000000000000001,0.5000000000000001],"scale":[2.4495029550643643,0.5036980323024466,2.4495029550643643],"translation":[0.0,0.0,0.0]},{"extensions":{"S8S_v3d_node_data":{"frustumCulling":true,"hidden":false,"renderOrder":0,"useCastShadows":true,"useShadows":true}},"mesh":4,"name":"polySurface3","rotation":[0.0,0.0,0.0,1.0],"scale":[1.0,1.0,1.0],"translation":[0.0,0.0,0.0]},{"extensions":{"S8S_v3d_node_data":{"hidden":true}},"name":"transform6","rotation":[0.0,0.0,0.0,1.0],"scale":[1.0,1.0,1.0],"translation":[0.0,0.0,0.0]},{"camera":0,"children":[14],"extensions":{"S8S_v3d_node_data":{"hidden":true}},"name":"persp","rotation":[-0.38986444628930317,-0.04016102090296601,-0.01702184933416874,0.9198386068027431],"scale":[0.9999999999999999,1.0,1.0],"translation":[-3.555266977013673,17.702427048918455,20.614325584156603]},{"extensions":{"S8S_v3d_node_data":{"light":0}},"name":"__DEFAULT_LIGHT__","rotation":[-0.13052619222005157,-0.0,-0.0,0.9914448613738104],"translation":[-3.555266977013673,17.702427048918455,20.614325584156603]}],"scene":0,"scenes":[{"extensions":{"S8S_v3d_scene_data":{"aaMethod":"AUTO","iblEnvironmentMode":"PMREM","physicallyCorrectLights":true,"postprocessing":[],"shadowMap":{"esmDistanceScale":2.5,"renderReverseSided":false,"renderSingleSided":true,"type":"PCFPOISSON"},"unitsScaleFactor":1.0,"useHDR":false,"worldMaterial":3}},"extras":{"animFrameRate":24.0,"coordSystem":"Y_UP_RIGHT"},"name":"Scene","nodes":[0,2,4,5,6,10,13]}]}