{"accessors":[{"bufferView":0,"componentType":5123,"count":492,"max":[302],"min":[0],"type":"SCALAR"},{"bufferView":1,"componentType":5126,"count":303,"max":[0.5810956954956055,0.5,0.5559921860694885],"min":[-0.5438895225524902,-0.5,-0.5559921860694885],"type":"VEC3"},{"bufferView":2,"componentType":5126,"count":303,"max":[1.0,1.0,1.0],"min":[-1.0,-1.0,-1.0],"type":"VEC3"},{"bufferView":3,"componentType":5126,"count":303,"max":[0.844735324382782,0.958597332239151],"min":[0.015755631029605865,-0.29988396167755127],"type":"VEC2"},{"bufferView":4,"componentType":5126,"count":303,"max":[1.0,1.0,1.0,1],"min":[-1.0,-1.0,-1.0,-1],"type":"VEC4"}],"asset":{"copyright":null,"generator":"Soft8Soft Verge3D for Maya plug-in","version":"2.0"},"bufferViews":[{"buffer":0,"byteLength":984,"byteOffset":0,"target":34963},{"buffer":0,"byteLength":3636,"byteOffset":984,"target":34962},{"buffer":0,"byteLength":3636,"byteOffset":4620,"target":34962},{"buffer":0,"byteLength":2424,"byteOffset":8256,"target":34962},{"buffer":0,"byteLength":4848,"byteOffset":10680,"target":34962}],"buffers":[{"byteLength":15528,"uri":"cabinet_mapping.bin"}],"cameras":[{"extensions":{"S8S_v3d_camera":{"controls":"ORBIT","enablePan":true,"moveSpeed":1.0,"orbitMaxDistance":1000.0,"orbitMaxPolarAngle":3.141592653589793,"orbitMaxZoom":100.0,"orbitMinDistance":0.0,"orbitMinPolarAngle":0.0,"orbitMinZoom":0.009999999776482582,"orbitTarget":[-7.949125037712797,18.811936516476173,-5.140276072472599],"rotateSpeed":1.0,"viewportFitInitialAspect":1.5,"viewportFitType":"HORIZONTAL"}},"name":"perspShape","perspective":{"aspectRatio":1.5,"yfov":0.6605947096585076,"zfar":10000.0,"znear":0.1},"type":"perspective"}],"extensions":{"S8S_v3d_lights":{"lights":[]}},"extensionsUsed":["S8S_v3d_texture","S8S_v3d_materials","S8S_v3d_lights","S8S_v3d_camera","S8S_v3d_mesh","S8S_v3d_node","S8S_v3d_scene"],"images":[{"mimeType":"image/png","uri":"Artboard 1.png"},{"mimeType":"image/png","uri":"orm-02.png"},{"mimeType":"image/png","uri":"Artboard 1.png"}],"materials":[{"emissiveFactor":[0.0,0.0,0.0],"name":"aiStandardSurface1","normalTexture":{"index":0,"scale":0.47445255517959595},"pbrMetallicRoughness":{"baseColorFactor":[1,1,1,1],"baseColorTexture":{"index":0},"metallicFactor":1,"metallicRoughnessTexture":{"index":1},"roughnessFactor":1}},{"extensions":{"S8S_v3d_materials":{"nodeGraph":{"edges":[],"nodes":[{"inputs":[[1.0,1.0,1.0],3.6956522464752197],"is_active_output":true,"name":"aiSkyDomeLightShape1","outputs":[],"type":"SKYDOME_LIGHT_AR"}]},"profile":"maya"}},"name":"Verge3D_Environment"}],"meshes":[{"extensions":{"S8S_v3d_mesh":{}},"name":"pCubeShape1","primitives":[{"attributes":{"NORMAL":2,"POSITION":1,"TANGENT":4,"TEXCOORD_0":3},"indices":0,"material":0,"mode":4}]}],"nodes":[{"extensions":{"S8S_v3d_node":{"frustumCulling":true,"hidden":false,"hidpiCompositing":false,"renderOrder":0,"useCastShadows":true,"useShadows":true}},"mesh":0,"name":"pCube1","rotation":[0.0,0.0,0.0,1.0],"scale":[13.670687345489313,32.785546115832226,10.715780443966095],"translation":[0.0,17.163966817985585,0.0]},{"extensions":{"S8S_v3d_node":{"groupNames":["defaultLightSet"],"hidden":false,"hidpiCompositing":false}},"name":"aiSkyDomeLight1","rotation":[0.0,0.0,0.0,1.0],"scale":[1.0,1.0,1.0],"translation":[0.0,0.0,0.0]},{"camera":0,"extensions":{"S8S_v3d_node":{"hidden":true,"hidpiCompositing":false}},"name":"persp","rotation":[-0.28623095919358155,0.46503317430991165,0.16194168498629402,0.8219433529472511],"scale":[1.0,1.0,1.0],"translation":[22.17711868198519,46.668536415425294,12.961397377922214]}],"samplers":[{}],"scene":0,"scenes":[{"extensions":{"S8S_v3d_scene":{"aaMethod":"AUTO","iblEnvironmentMode":"PMREM","physicallyCorrectLights":true,"pmremMaxTileSize":256,"shadowMap":{"esmDistanceScale":2.5,"renderReverseSided":false,"renderSingleSided":true,"type":"PCFPOISSON"},"unitsScaleFactor":1.0,"useHDR":false,"worldMaterial":1}},"extras":{"animFrameRate":24.0,"coordSystem":"Y_UP_RIGHT"},"name":"Scene","nodes":[0,1,2]}],"textures":[{"extensions":{"S8S_v3d_texture":{"colorSpace":"srgb"}},"name":"file1","sampler":0,"source":0},{"extensions":{"S8S_v3d_texture":{"colorSpace":"srgb"}},"name":"file2","sampler":0,"source":1},{"extensions":{"S8S_v3d_texture":{"colorSpace":"srgb"}},"name":"file1","sampler":0,"source":0}]}